<svg width="115" height="183" viewBox="0 0 115 183" fill="none" xmlns="http://www.w3.org/2000/svg">
<path fill-rule="evenodd" clip-rule="evenodd" d="M23.9109 178.89C20.3692 177.184 17.1053 174.524 14.3069 171.063C18.4156 170.921 22.5073 170.277 26.5347 169.14C35.4521 166.193 43.6812 160.144 50.4456 151.563C63.6634 134.329 69.703 115.379 75.198 93.1327C79.6813 73.2576 83.1714 52.9774 85.6436 32.4365C86.8812 25.5704 87.6732 18.7043 88.9109 11.8382C89.3069 10.1216 89.901 8.1991 90.2475 6.55124C90.594 4.90337 90.6931 5.65864 89.703 6.55124C88.7129 7.44383 90.495 5.79593 92.8713 4.90334C117.178 19.6654 122.574 68.6894 104.307 116.271C86.0396 163.854 49.8515 193.103 24.0099 179.508L23.9109 178.89ZM12.6733 169.415C-3.16832 148.817 -4.60397 107.002 10.8911 66.4236C25.297 28.5914 50.4951 2.98086 73.1188 -0.108887C72.4753 2.15693 72.1287 4.35411 71.8812 5.17804C70.8911 13.0054 70.2971 20.8327 69.703 28.5914C68.8501 48.9498 67.1143 69.2186 64.505 89.2877C61.0396 110.435 57.0792 129.111 46.3861 146.963C40.7968 155.563 33.6787 161.979 25.7426 165.57C21.4911 167.42 17.1102 168.64 12.6733 169.209V169.415Z" fill="#AF7F58" fill-opacity="0.15"/>
</svg>
