<svg width="202" height="383" viewBox="0 0 202 383" fill="none" xmlns="http://www.w3.org/2000/svg">
<path fill-rule="evenodd" clip-rule="evenodd" d="M15.8614 375.635C8.62392 372.053 1.95439 366.47 -3.76408 359.206C4.63188 358.907 12.9931 357.556 21.223 355.17C39.4455 348.985 56.2615 336.288 70.0844 318.277C97.0948 282.103 109.437 242.327 120.666 195.633C129.827 153.916 136.959 111.349 142.011 68.2346C144.54 53.823 146.158 39.4113 148.687 24.9997C149.497 21.3968 150.711 17.3614 151.419 13.9026C152.127 10.4439 152.329 12.0291 150.306 13.9026C148.283 15.7762 151.925 12.3173 156.78 10.4438C206.451 41.4288 217.478 144.328 180.149 244.201C142.82 344.073 68.8705 405.467 16.0638 376.932L15.8614 375.635ZM-7.10246 355.747C-39.4744 312.512 -42.4081 224.745 -10.7443 139.572C18.6939 60.164 70.1856 6.40858 116.417 -0.0766602C115.102 4.67918 114.394 9.29097 113.888 11.0204C111.864 27.4496 110.65 43.8787 109.437 60.1639C107.694 102.895 104.147 145.439 98.8145 187.563C91.7331 231.951 83.6401 271.15 61.789 308.621C50.3673 326.671 35.8217 340.138 19.6044 347.676C10.9167 351.56 1.96434 354.12 -7.10246 355.314V355.747Z" fill="#AF7F58" fill-opacity="0.15"/>
</svg>
