<svg width="20" height="20" viewBox="0 0 20 20" fill="none" xmlns="http://www.w3.org/2000/svg">
<path d="M5.97968 6.02042L13.0796 5.98427L10.9903 8.09494L15.0101 11.9745L12.2244 14.7887L8.1046 10.9097L6.01583 13.1203L5.97968 6.02042ZM16.9541 0.964485L2.95427 1.03575C1.85428 1.04135 0.958877 1.94592 0.964477 3.04591L1.03574 17.0457C1.04134 18.1457 1.94591 19.0411 3.0459 19.0355L17.0457 18.9643C18.1457 18.9587 19.0411 18.0541 19.0355 16.9541L18.9642 2.95428C18.9586 1.85429 18.0541 0.958885 16.9541 0.964485ZM17.0355 16.9643L3.03572 17.0355L2.96445 3.03573L16.9643 2.96446L17.0355 16.9643Z" fill="#F8E4BE"/>
</svg>
