<svg width="124" height="274" viewBox="0 0 124 274" fill="none" xmlns="http://www.w3.org/2000/svg">
<path fill-rule="evenodd" clip-rule="evenodd" d="M120.396 268.202C125.078 265.643 129.391 261.655 133.09 256.465C127.66 256.252 122.251 255.287 116.928 253.583C105.142 249.164 94.2651 240.093 85.3243 227.227C67.8538 201.385 59.871 172.97 52.6079 139.613C46.6822 109.812 42.0692 79.403 38.8016 48.603C37.1658 38.3077 36.119 28.0124 34.4831 17.7171C33.9597 15.1433 33.1745 12.2606 32.7164 9.78968C32.2584 7.31881 32.1275 8.45129 33.4362 9.78968C34.7449 11.1281 32.3893 8.65714 29.2485 7.31875C-2.87895 29.4537 -10.0111 102.962 14.1336 174.309C38.2782 245.655 86.1095 289.513 120.265 269.128L120.396 268.202ZM135.249 253.994C156.188 223.108 158.085 160.41 137.605 99.5648C118.564 42.8376 85.2588 4.43611 55.3561 -0.196777C56.2067 3.20067 56.6647 6.49522 56.9919 7.73065C58.3006 19.4673 59.0858 31.2038 59.871 42.8375C60.9983 73.3638 63.2926 103.756 66.7414 133.848C71.3217 165.558 76.5564 193.561 90.6898 220.329C98.0775 233.224 107.486 242.844 117.975 248.229C123.595 251.003 129.385 252.833 135.249 253.685V253.994Z" fill="#AF7F58" fill-opacity="0.15"/>
</svg>
