<svg width="71" height="146" viewBox="0 0 71 146" fill="none" xmlns="http://www.w3.org/2000/svg">
<path fill-rule="evenodd" clip-rule="evenodd" d="M46.8912 144.33C49.3534 143.97 51.7461 142.848 53.9319 141.029C51.3172 139.905 48.7702 138.421 46.3207 136.595C40.9457 132.24 36.3647 125.802 33.0096 117.888C26.5069 102.086 24.7962 86.8191 23.8092 69.2937C23.2003 53.7419 23.2735 38.1427 24.0282 22.6068C24.0171 17.3115 24.2913 12.127 24.2802 6.83172C24.222 5.48639 24.0604 3.94222 24.026 2.65907C23.9916 1.37592 23.8423 1.9 24.3747 2.79432C24.9071 3.68864 23.9535 2.04891 22.5334 0.81032C5.28827 5.49731 -3.7465 39.7705 2.53579 78.8732C8.81808 117.976 28.6624 148.212 46.7574 144.754L46.8912 144.33ZM55.1656 140.237C67.6542 129.208 73.3324 99.1889 68.0283 65.8623C63.109 34.8013 49.888 9.93836 35.7524 2.07495C35.9067 3.88078 35.8785 5.56298 35.9432 6.223C35.6864 12.1551 35.176 17.9887 34.6734 23.7725C32.9026 38.7737 31.7073 53.9291 31.0942 69.1562C30.9064 85.3795 31.317 99.9301 36.1327 115.554C38.7331 123.19 42.561 129.618 47.2342 134.198C49.7461 136.598 52.4126 138.573 55.1891 140.088L55.1656 140.237Z" fill="#AF7F58" fill-opacity="0.15"/>
</svg>
