<svg width="108" height="274" viewBox="0 0 108 274" fill="none" xmlns="http://www.w3.org/2000/svg">
<path fill-rule="evenodd" clip-rule="evenodd" d="M-12.396 268.489C-17.0773 265.931 -21.3912 261.942 -25.0899 256.753C-19.6594 256.539 -14.2512 255.575 -8.92805 253.87C2.85844 249.451 13.7352 240.381 22.676 227.514C40.1465 201.673 48.1293 173.258 55.3923 139.901C61.318 110.099 65.9311 79.6906 69.1986 48.8906C70.8344 38.5953 71.8813 28.3 73.5171 18.0047C74.0406 15.4309 74.8258 12.5482 75.2838 10.0773C75.7418 7.60641 75.8727 8.73889 74.564 10.0773C73.2554 11.4157 75.611 8.94474 78.7517 7.60635C110.879 29.7413 118.011 103.25 93.8667 174.596C69.722 245.943 21.8908 289.801 -12.2651 269.416L-12.396 268.489ZM-27.2492 254.282C-48.1877 223.396 -50.0853 160.698 -29.6048 99.8524C-10.5639 43.1252 22.7414 4.72371 52.6441 0.0908203C51.7935 3.48827 51.3355 6.78281 51.0083 8.01825C49.6997 19.7549 48.9145 31.4914 48.1293 43.1251C47.002 73.6514 44.7077 104.043 41.2588 134.136C36.6785 165.845 31.4439 193.848 17.3104 220.616C9.92273 233.511 0.514503 243.131 -9.975 248.516C-15.5943 251.291 -21.3847 253.12 -27.2492 253.973V254.282Z" fill="#AF7F58" fill-opacity="0.15"/>
</svg>
