<svg width="36" height="36" viewBox="0 0 36 36" fill="none" xmlns="http://www.w3.org/2000/svg">
<g clip-path="url(#clip0_12_569)">
<path d="M14.375 30.4375C14.375 30.7713 14.276 31.0975 14.0906 31.375C13.9052 31.6525 13.6416 31.8688 13.3333 31.9965C13.0249 32.1243 12.6856 32.1577 12.3583 32.0926C12.0309 32.0275 11.7303 31.8667 11.4943 31.6307C11.2583 31.3947 11.0975 31.0941 11.0324 30.7667C10.9673 30.4394 11.0007 30.1001 11.1285 29.7917C11.2562 29.4834 11.4725 29.2198 11.75 29.0344C12.0275 28.849 12.3537 28.75 12.6875 28.75C13.1351 28.75 13.5643 28.9278 13.8807 29.2443C14.1972 29.5607 14.375 29.9899 14.375 30.4375ZM27.3125 28.75C26.9787 28.75 26.6525 28.849 26.375 29.0344C26.0975 29.2198 25.8812 29.4834 25.7535 29.7917C25.6257 30.1001 25.5923 30.4394 25.6574 30.7667C25.7225 31.0941 25.8833 31.3947 26.1193 31.6307C26.3553 31.8667 26.6559 32.0275 26.9833 32.0926C27.3106 32.1577 27.6499 32.1243 27.9583 31.9965C28.2666 31.8688 28.5302 31.6525 28.7156 31.375C28.901 31.0975 29 30.7713 29 30.4375C29 29.9899 28.8222 29.5607 28.5057 29.2443C28.1893 28.9278 27.7601 28.75 27.3125 28.75ZM33.1625 10.3422L29.45 23.3359C29.2754 23.9215 28.9175 24.4357 28.429 24.8027C27.9404 25.1698 27.347 25.3704 26.7359 25.375H13.2641C12.653 25.3704 12.0596 25.1698 11.571 24.8027C11.0825 24.4357 10.7246 23.9215 10.55 23.3359L6.85156 10.3562V10.3281L5.47344 5.53281C5.43745 5.41524 5.36482 5.31225 5.26616 5.23889C5.16749 5.16552 5.04795 5.12561 4.925 5.125H2.5625C2.41332 5.125 2.27024 5.06574 2.16475 4.96025C2.05926 4.85476 2 4.71168 2 4.5625C2 4.41332 2.05926 4.27024 2.16475 4.16475C2.27024 4.05926 2.41332 4 2.5625 4H4.925C5.29257 4.00038 5.65013 4.11977 5.94418 4.34031C6.23823 4.56085 6.45297 4.87068 6.55625 5.22344L7.80781 9.625H32.6141C32.7016 9.62387 32.7881 9.64371 32.8664 9.68286C32.9447 9.722 33.0125 9.77931 33.0641 9.85C33.1175 9.91882 33.1541 9.99909 33.1712 10.0845C33.1883 10.1699 33.1853 10.2581 33.1625 10.3422ZM31.8687 10.75H8.13125L11.6328 23.0266C11.7361 23.3793 11.9508 23.6891 12.2449 23.9097C12.5389 24.1302 12.8965 24.2496 13.2641 24.25H26.7359C27.1035 24.2496 27.4611 24.1302 27.7551 23.9097C28.0492 23.6891 28.2639 23.3793 28.3672 23.0266L31.8687 10.75Z" fill="#F8E4BE" stroke="#F8E4BE" stroke-width="0.5"/>
<path d="M23.7742 13.8981C23.3875 13.5353 22.9194 13.2705 22.4093 13.1258C21.8992 12.9812 21.3618 12.9609 20.8422 13.0667C19.6168 13.2827 18.4909 13.8801 17.625 14.7737C16.7281 15.6398 16.1287 16.7679 15.9131 17.9959C15.8081 18.5147 15.8288 19.0511 15.9734 19.5603C16.118 20.0695 16.3824 20.5367 16.7444 20.9229C17.0468 21.2129 17.404 21.4398 17.7951 21.5901C18.1862 21.7405 18.6033 21.8113 19.0221 21.7985C20.491 21.7394 21.8793 21.1114 22.8936 20.0473C24.8313 18.109 25.2249 15.3493 23.7742 13.8981ZM16.4001 18.0697C16.6008 16.9471 17.1499 15.9161 17.9694 15.123C18.7611 14.3018 19.7927 13.7524 20.916 13.5537C21.1082 13.5247 21.3022 13.5099 21.4965 13.5095C21.8505 13.4972 22.2035 13.5557 22.5346 13.6816C22.8657 13.8074 23.1684 13.9981 23.4249 14.2424C23.4455 14.2614 23.4637 14.2829 23.479 14.3064C23.1726 14.572 22.8187 14.7773 22.4361 14.9115C21.8834 15.1102 21.3848 15.4354 20.98 15.8609C20.5544 16.2657 20.2293 16.7643 20.0305 17.317C19.8584 17.8097 19.5698 18.2536 19.1893 18.6108C18.8307 18.9896 18.3873 19.2779 17.8956 19.452C17.4726 19.6026 17.0808 19.8294 16.7395 20.121C16.3888 19.4984 16.2686 18.7721 16.4001 18.0697ZM22.5443 19.698C20.798 21.4443 18.3531 21.8379 17.0937 20.5785C17.0728 20.5584 17.0531 20.537 17.0347 20.5146C17.3435 20.2497 17.6988 20.0446 18.0825 19.9095C18.6336 19.7076 19.1316 19.3829 19.5386 18.9601C19.9632 18.5544 20.2881 18.0561 20.488 17.504C20.6602 17.0113 20.9488 16.5674 21.3293 16.2102C21.6865 15.8297 22.1303 15.5411 22.623 15.369C23.044 15.2151 23.434 14.9869 23.7742 14.695C24.5809 16.0291 24.1038 18.1386 22.5443 19.698Z" fill="#F8E4BE" stroke="#F8E4BE" stroke-width="0.5"/>
</g>
<defs>
<clipPath id="clip0_12_569">
<rect width="36" height="36" fill="white"/>
</clipPath>
</defs>
</svg>
