<svg width="45" height="45" viewBox="0 0 45 45" fill="none" xmlns="http://www.w3.org/2000/svg">
<rect width="45" height="45" rx="22.5" transform="matrix(-1 0 0 1 45 0)" fill="#8D685E" fill-opacity="0.7"/>
<path d="M21.1875 28.6875L16.3125 23.8125C15.9375 23.4375 15.75 23 15.75 22.5C15.75 22 15.9375 21.5625 16.3125 21.1875L21.2344 16.2656C21.5781 15.9219 22.0075 15.7575 22.5225 15.7725C23.0387 15.7887 23.4688 15.9688 23.8125 16.3125C24.1562 16.6562 24.3281 17.0937 24.3281 17.625C24.3281 18.1562 24.1562 18.5938 23.8125 18.9375L22.125 20.625H28.1719C28.7031 20.625 29.1406 20.8044 29.4844 21.1631C29.8281 21.5231 30 21.9688 30 22.5C30 23.0312 29.82 23.4762 29.46 23.835C29.1012 24.195 28.6562 24.375 28.125 24.375H22.125L23.8594 26.1094C24.2031 26.4531 24.3675 26.8831 24.3525 27.3994C24.3363 27.9144 24.1562 28.3438 23.8125 28.6875C23.4688 29.0312 23.0312 29.2031 22.5 29.2031C21.9688 29.2031 21.5312 29.0312 21.1875 28.6875ZM22.5 41.25C25.0938 41.25 27.5312 40.7575 29.8125 39.7725C32.0937 38.7887 34.0781 37.4531 35.7656 35.7656C37.4531 34.0781 38.7887 32.0938 39.7725 29.8125C40.7575 27.5312 41.25 25.0938 41.25 22.5C41.25 19.9062 40.7575 17.4688 39.7725 15.1875C38.7887 12.9063 37.4531 10.9219 35.7656 9.23438C34.0781 7.54688 32.0937 6.21062 29.8125 5.22562C27.5312 4.24187 25.0938 3.75 22.5 3.75C19.9062 3.75 17.4688 4.24187 15.1875 5.22562C12.9062 6.21062 10.9219 7.54688 9.23438 9.23438C7.54688 10.9219 6.21125 12.9063 5.2275 15.1875C4.2425 17.4688 3.75 19.9062 3.75 22.5C3.75 25.0938 4.2425 27.5312 5.2275 29.8125C6.21125 32.0938 7.54688 34.0781 9.23438 35.7656C10.9219 37.4531 12.9062 38.7887 15.1875 39.7725C17.4688 40.7575 19.9062 41.25 22.5 41.25ZM22.5 37.5C18.3438 37.5 14.8044 36.0394 11.8819 33.1181C8.96062 30.1956 7.5 26.6562 7.5 22.5C7.5 18.3438 8.96062 14.8044 11.8819 11.8819C14.8044 8.96062 18.3438 7.5 22.5 7.5C26.6562 7.5 30.195 8.96062 33.1163 11.8819C36.0388 14.8044 37.5 18.3438 37.5 22.5C37.5 26.6562 36.0388 30.1956 33.1163 33.1181C30.195 36.0394 26.6562 37.5 22.5 37.5Z" fill="#F8E4BE"/>
</svg>
