<svg width="100" height="132" viewBox="0 0 100 132" fill="none" xmlns="http://www.w3.org/2000/svg">
<path fill-rule="evenodd" clip-rule="evenodd" d="M-2.63852 126.317C0.0937288 128.385 3.34652 129.867 6.93318 130.677C5.19775 127.449 3.80842 124.039 2.78126 120.486C0.797533 112.451 1.21739 103.737 4.00126 95.1659C9.75635 78.2352 19.8717 66.1766 32.4573 53.2521C43.8915 42.0341 56.0422 31.4248 68.8229 21.4996C72.9117 17.8645 77.1991 14.5734 81.2879 10.9382C82.2715 9.96257 83.306 8.7536 84.2653 7.84294C85.2245 6.93229 84.6699 7.15061 84.508 8.26337C84.3462 9.37612 84.6654 7.35707 84.2093 5.17415C63.3959 -7.83069 27.8568 7.13595 3.84167 39.8091C-20.1735 72.4822 -23.809 111.836 -3.1003 126.482L-2.63852 126.317ZM8.77531 131.295C29.7593 135.486 58.6601 120.276 79.1778 92.4762C98.3248 66.5894 104.4 37.1402 96.4028 18.4678C95.1583 19.849 93.8278 20.974 93.3813 21.4867C88.5325 25.3058 83.5071 28.8193 78.5282 32.3059C65.1489 40.9097 52.2238 50.1601 39.8231 60.0071C27.0752 70.9358 16.2185 81.282 8.92023 96.5046C5.59975 104.176 4.43685 112.175 5.54756 119.704C6.19226 123.709 7.3209 127.567 8.91453 131.214L8.77531 131.295Z" fill="#AF7F58" fill-opacity="0.15"/>
</svg>
