<svg width="85" height="132" viewBox="0 0 85 132" fill="none" xmlns="http://www.w3.org/2000/svg">
<path fill-rule="evenodd" clip-rule="evenodd" d="M102.639 126.317C99.9063 128.385 96.6535 129.867 93.0668 130.677C94.8022 127.449 96.1916 124.039 97.2187 120.486C99.2025 112.451 98.7826 103.737 95.9987 95.1659C90.2437 78.2352 80.1282 66.1766 67.5427 53.2521C56.1085 42.0341 43.9578 31.4248 31.1771 21.4996C27.0883 17.8645 22.8009 14.5734 18.7121 10.9382C17.7285 9.96256 16.694 8.7536 15.7347 7.84295C14.7755 6.93229 15.3301 7.15061 15.492 8.26337C15.6538 9.37612 15.3346 7.35707 15.7907 5.17416C36.6041 -7.83069 72.1432 7.13596 96.1583 39.8091C120.173 72.4822 123.809 111.836 103.1 126.482L102.639 126.317ZM91.2247 131.295C70.2407 135.486 41.3399 120.276 20.8222 92.4762C1.67516 66.5894 -4.40046 37.1402 3.59724 18.4678C4.84171 19.849 6.17221 20.974 6.61872 21.4867C11.4675 25.3058 16.4929 28.8193 21.4718 32.3059C34.8511 40.9097 47.7762 50.1601 60.1769 60.0071C72.9248 70.9358 83.7815 81.282 91.0798 96.5046C94.4003 104.176 95.5632 112.175 94.4524 119.704C93.8077 123.709 92.6791 127.567 91.0855 131.214L91.2247 131.295Z" fill="#AF7F58" fill-opacity="0.15"/>
</svg>
