<svg width="65" height="81" viewBox="0 0 65 81" fill="none" xmlns="http://www.w3.org/2000/svg">
<path fill-rule="evenodd" clip-rule="evenodd" d="M54.8077 76.2985C53.1428 77.7332 51.2088 78.8244 49.1166 79.5095C50.268 77.3948 51.2302 75.1823 51.9922 72.8977C53.5214 67.7478 53.7084 62.2886 52.5357 57.0351C50.0727 46.6707 44.8756 39.5837 38.3075 32.0735C32.3146 25.5799 25.8818 19.5041 19.0549 13.8895C16.8934 11.8041 14.6014 9.94478 12.4399 7.85936C11.9249 7.29405 11.3922 6.58453 10.888 6.05891C10.3837 5.5333 10.6904 5.64339 10.7284 6.3352C10.7665 7.02701 10.6828 5.773 11.0508 4.37793C23.5987 -4.82067 43.2015 2.84823 55.3416 22.2167C67.4817 41.5853 67.6323 66.1544 55.0639 76.3794L54.8077 76.2985ZM48.0322 79.9886C35.8189 83.6534 20.0267 75.5055 9.64901 59.0302C-0.0381574 43.6904 -2.07074 25.4696 3.42146 13.3354C4.06586 14.1429 4.77205 14.7852 5.00242 15.0856C7.5898 17.2495 10.2932 19.2125 12.9713 21.1609C20.2055 25.9152 27.1481 31.0984 33.7613 36.6825C40.5202 42.9297 46.2254 48.9035 49.6553 58.1182C51.1792 62.7795 51.4524 67.7528 50.4476 72.5416C49.8823 75.0914 49.0473 77.573 47.9565 79.9448L48.0322 79.9886Z" fill="#AF7F58" fill-opacity="0.15"/>
</svg>
