<svg width="108" height="107" viewBox="0 0 108 107" fill="none" xmlns="http://www.w3.org/2000/svg">
<path d="M103.007 40.0528C103.421 36.453 103.285 32.8113 102.606 29.2522C101.694 24.7635 99.1599 20.7681 95.4881 18.0299C91.8162 15.2916 87.2641 14.0026 82.7017 14.4093C79.0998 14.7648 75.5726 15.6648 72.2407 17.0785C65.4826 19.9021 58.9869 25.5338 53.6483 32.6621C48.3098 39.7905 44.7148 47.6131 43.897 54.9112C43.7415 56.2579 43.6848 57.6141 43.7273 58.9691C43.8215 62.2164 44.647 65.4005 46.1422 68.2846C47.6374 71.1687 49.7639 73.6784 52.3633 75.6268C54.9628 77.5753 57.9682 78.9124 61.1559 79.5385C64.3437 80.1646 67.6316 80.0637 70.7749 79.2432C72.1054 78.886 73.4097 78.4375 74.6785 77.9009C81.4519 75.0773 87.9323 69.4302 93.2708 62.3018C98.6094 55.1735 102.189 47.3508 103.007 40.0528Z" fill="#F8E4BE"/>
<path d="M99.1031 24.4695C103.254 33.0482 102.081 43.1235 98.2082 51.5633C93.9831 61.0234 87.0245 69.0031 78.2272 74.4759C74.3947 76.8238 70.0206 78.1419 65.5289 78.3023C74.3236 77.7777 82.0845 71.8375 87.7779 65.5423C94.5205 58.0899 100.199 48.5701 101.063 38.3404C101.547 33.6262 100.874 28.8651 99.1031 24.4695Z" fill="#54372B"/>
<path d="M93.5948 24.3921L93.0239 24.8858C92.6536 25.2253 92.1136 25.7344 91.481 26.4288C89.8018 28.3802 88.2554 30.4421 86.8522 32.6005C85.9727 33.9274 84.8926 35.316 83.9206 36.8281C82.9203 38.4321 82.1075 40.1457 81.4982 41.9352C80.8765 43.862 80.488 45.8563 80.341 47.8755C80.156 50.0184 79.7579 52.1375 79.1529 54.2015C78.4908 56.2861 77.4092 58.2131 75.9745 59.8641C74.56 61.4171 73.0111 62.8422 71.3457 64.1226C69.8028 65.3878 68.2599 66.4832 66.7169 67.5324C65.3148 68.5269 63.8625 69.4488 62.3659 70.2943C60.1102 71.5806 57.677 72.5268 55.1449 73.1024C54.2346 73.303 53.5094 73.3956 53.0157 73.4727L52.2442 73.5499L53.0003 73.4264C53.494 73.3338 54.2192 73.195 55.1141 72.9481C57.573 72.2411 59.9244 71.203 62.1036 69.8623C63.5654 68.9687 64.9767 67.9952 66.3312 66.9461C67.8741 65.8661 69.4171 64.7089 70.96 63.4591C72.5406 62.1912 74.0115 60.7925 75.3573 59.2778C76.6936 57.7005 77.6961 55.8686 78.3044 53.8929C78.9061 51.8791 79.3142 49.8125 79.5233 47.7212C79.6887 45.621 80.1084 43.5486 80.7731 41.5495C81.4245 39.7097 82.3113 37.9619 83.4114 36.3498C84.4606 34.8069 85.5407 33.4954 86.4973 32.1839C88.0046 30.0844 89.6707 28.1037 91.481 26.259C92.1445 25.611 92.6999 25.1327 93.0239 24.8087L93.5948 24.3921Z" fill="#54372B"/>
<path d="M93.2091 22.2009C89.506 25.1171 87.4848 28.6504 84.3526 32.4923C81.1895 36.0741 79.0566 40.4466 78.1809 45.1443C77.922 48.0272 77.4371 50.8852 76.7306 53.6921C75.0488 58.7375 69.7411 62.0548 65.5752 65.2641C61.4093 68.4734 57.2125 70.973 51.982 71.5901C55.4623 69.0661 58.7149 66.242 61.7024 63.1503C64.6363 59.6466 66.7455 55.5284 67.8741 51.1C69.0776 47.1347 68.8771 42.7682 70.5126 38.88C72.5647 34.0352 77.2243 30.7333 81.4982 27.6783C85.2784 25.0091 88.5803 22.741 93.2091 22.2009Z" fill="#54372B"/>
<path d="M26.863 36.7665C23.2335 37.0475 19.6687 37.8853 16.294 39.2506C12.0624 41.0056 8.62771 44.2612 6.64874 48.3928C4.66978 52.5244 4.28585 57.2412 5.5706 61.6385C6.60714 65.1012 8.16819 68.3846 10.1994 71.3744C14.2882 77.469 20.9999 82.7612 29.0849 86.6185C37.1698 90.4759 45.4862 92.4971 52.7997 91.8954C54.1491 91.7786 55.4892 91.5724 56.8113 91.2782C59.9842 90.565 62.9551 89.1445 65.5024 87.1228C68.0497 85.1012 70.1076 82.5304 71.5227 79.6024C72.9377 76.6743 73.6734 73.4645 73.6748 70.2125C73.6763 66.9604 72.9434 63.75 71.5309 60.8207C70.9443 59.5834 70.2742 58.3874 69.5251 57.2411C65.4517 51.1466 58.7246 45.8697 50.6242 42.0124C42.5238 38.1551 34.1765 36.1493 26.863 36.7665Z" fill="#F8E4BE"/>
<path d="M12.3132 43.5862C19.8273 37.939 29.7946 37.075 38.7436 39.158C48.9688 41.4332 58.2645 46.7535 65.4054 54.4175C68.4324 57.7336 70.5574 61.7713 71.5771 66.1438C69.3553 57.6114 62.0418 51.1465 54.7592 46.78C46.1342 41.5958 35.6732 37.8773 25.4435 39.0654C20.7685 39.5019 16.2661 41.0521 12.3132 43.5862Z" fill="#54372B"/>
<path d="M13.3007 49.0173L13.9024 49.4802C14.3036 49.7734 14.9053 50.2054 15.6922 50.6837C17.9202 51.964 20.2292 53.0978 22.6045 54.0782C24.1475 54.6953 25.6904 55.4822 27.3259 56.1457C29.0916 56.8196 30.9298 57.2856 32.8033 57.5343C34.8119 57.7811 36.8431 57.7811 38.8516 57.5343C40.9912 57.3257 43.146 57.3257 45.2856 57.5343C47.4594 57.7791 49.5599 58.467 51.4574 59.5556C53.2425 60.6193 54.9308 61.8377 56.5027 63.1969C58.0457 64.4929 59.4343 65.8507 60.7612 67.1159C62.0232 68.2977 63.2231 69.544 64.3562 70.8498C66.0543 72.8142 67.4529 75.0187 68.5067 77.3918C68.877 78.2559 69.1239 78.9348 69.2782 79.4285L69.4942 80.1537L69.2319 79.4285C69.0468 78.9656 68.769 78.2867 68.3524 77.469C67.185 75.1857 65.7107 73.0728 63.9705 71.1893C62.9059 70.0166 61.6561 68.844 60.2983 67.6096C58.9405 66.3753 57.5211 65.0792 55.9936 63.814C54.4388 62.4792 52.7714 61.2815 51.0099 60.2344C49.2042 59.2321 47.2157 58.6025 45.1622 58.3829C43.0841 58.1824 40.9915 58.1824 38.9133 58.3829C36.8637 58.6329 34.7913 58.6329 32.7416 58.3829C30.8032 58.1259 28.9087 57.6068 27.1099 56.84C25.3973 56.0994 23.9006 55.2971 22.4811 54.6336C20.1263 53.5676 17.8612 52.3138 15.7076 50.8843C14.9362 50.3597 14.3653 49.8968 13.9796 49.5882L13.3007 49.0173Z" fill="#54372B"/>
<path d="M11.2332 49.8196C14.8128 52.9054 18.6546 54.1861 23.0366 56.5159C27.1576 58.9236 31.8574 60.1612 36.6298 60.0955C39.5099 59.7949 42.409 59.7175 45.301 59.8641C50.5779 60.5584 54.8518 65.1255 58.8171 68.5816C62.7825 72.0378 66.038 75.6945 67.6427 80.6936C64.4909 77.7746 61.0943 75.1317 57.4902 72.7938C53.4838 70.5898 49.0335 69.3138 44.4679 69.0599C40.3328 68.6433 36.0898 69.6925 31.9701 68.8285C26.8168 67.7484 22.7126 63.8294 18.8552 60.2189C15.5225 57.0559 12.6527 54.2478 11.2332 49.8196Z" fill="#54372B"/>
</svg>
