<svg width="108" height="107" viewBox="0 0 108 107" fill="none" xmlns="http://www.w3.org/2000/svg">
<path d="M91.0292 28.1289V15.2551C91.0312 11.7395 90.3359 8.25842 88.9834 5.01339C88.472 3.81254 87.6159 2.79031 86.5235 2.07596C85.4311 1.3616 84.1514 0.987198 82.8462 1.0001H25.6829C24.3785 0.986765 23.0995 1.36107 22.008 2.07556C20.9166 2.79005 20.0619 3.81254 19.5523 5.01339C18.1947 8.2571 17.4971 11.7388 17.5 15.2551V28.1289C17.5 28.6473 17.7059 29.1444 18.0725 29.5109C18.439 29.8775 18.9362 30.0834 19.4545 30.0834H20.7119C20.1907 51.9415 23.3766 77.7086 23.748 80.6274L18.9008 86.3216C18.0151 87.3641 17.528 88.6869 17.5261 90.0547V95.99C17.5226 96.9745 17.7716 97.9435 18.2492 98.8045L19.6304 101.28C20.0199 101.976 20.5869 102.556 21.2736 102.961C21.9603 103.366 22.7422 103.582 23.5395 103.587H27.4029V104.499C27.4029 104.931 27.5745 105.345 27.88 105.65C28.1854 105.956 28.5997 106.127 29.0317 106.127H35.1884C35.6204 106.127 36.0347 105.956 36.3402 105.65C36.6456 105.345 36.8172 104.931 36.8172 104.499V103.619H71.7315V104.551C71.7332 104.977 71.9033 105.385 72.2047 105.687C72.5062 105.988 72.9145 106.158 73.3407 106.16H79.5236C79.9498 106.158 80.3581 105.988 80.6596 105.687C80.961 105.385 81.1311 104.977 81.1328 104.551V103.619H84.9897C85.787 103.615 86.5689 103.399 87.2556 102.994C87.9423 102.589 88.5093 102.009 88.8988 101.313L90.2799 98.837C90.7572 97.9756 91.0082 97.0073 91.0096 96.0225V90.0873C91.0072 88.7207 90.5227 87.3987 89.6415 86.3542L84.7877 80.6339C85.1591 77.7152 88.345 51.9676 87.8238 30.0899H89.0812C89.3378 30.0891 89.5918 30.0377 89.8286 29.9387C90.0655 29.8396 90.2804 29.695 90.4613 29.5129C90.6422 29.3308 90.7855 29.1148 90.8829 28.8774C90.9803 28.6399 91.03 28.3856 91.0292 28.1289ZM21.9694 30.0834H29.1359C30.0899 30.1265 30.9936 30.5237 31.6703 31.1975L35.3774 34.9046C35.8538 35.3833 36.4203 35.7628 37.0444 36.0212C37.6684 36.2795 38.3374 36.4115 39.0128 36.4096H69.5034C70.1777 36.411 70.8456 36.2787 71.4685 36.0204C72.0914 35.7621 72.6569 35.3828 73.1323 34.9046L76.8459 31.1975C77.5202 30.5242 78.4217 30.1269 79.3737 30.0834H86.5403C80.6116 60.5088 62.7081 76.7509 33.9571 80.1518H24.9793C24.4711 76.0929 21.5068 51.2248 21.9889 30.0704L21.9694 30.0834Z" fill="#F8E4BE"/>
<path d="M73.6275 58.3589C79.6278 50.4561 83.0287 41.1591 85.0484 31.5298C83.7393 36.4967 82.0401 41.3525 79.9666 46.0519C75.6471 55.603 68.891 63.9488 60.024 69.6169C51.7498 74.9137 42.2899 77.5262 32.6606 79.1029C37.8052 78.6416 42.8881 77.6482 47.8277 76.1385C58.0564 72.8875 67.1124 66.9457 73.6275 58.3589Z" fill="#F8E4BE"/>
<path d="M21.4872 31.1777L29.2076 31.5035L21.4872 31.8292V31.1777Z" fill="#F8E4BE"/>
<path d="M21.6045 33.6729L29.3314 33.9986L21.6045 34.3244V33.6729Z" fill="#F8E4BE"/>
<path d="M21.7285 36.1685L29.4489 36.4942L21.7285 36.82V36.1685Z" fill="#F8E4BE"/>
<path d="M21.8521 38.6638L29.5724 38.9896L21.8521 39.3153V38.6638Z" fill="#F8E4BE"/>
<path d="M21.9694 41.1589L29.6897 41.4847L21.9694 41.8104V41.1589Z" fill="#F8E4BE"/>
<path d="M22.0931 43.6543L29.8135 43.9801L22.0931 44.3058V43.6543Z" fill="#F8E4BE"/>
<path d="M22.2104 46.1494L29.9373 46.4752L22.2104 46.8009V46.1494Z" fill="#F8E4BE"/>
<path d="M22.3342 48.6445L30.0546 48.9703L22.3342 49.296V48.6445Z" fill="#F8E4BE"/>
<path d="M22.4514 51.1401L30.1783 51.4659L22.4514 51.7916V51.1401Z" fill="#F8E4BE"/>
<path d="M22.5753 53.6353L30.2956 53.961L22.5753 54.2868V53.6353Z" fill="#F8E4BE"/>
<path d="M22.6925 56.1306L30.4194 56.4564L22.6925 56.7821V56.1306Z" fill="#F8E4BE"/>
<path d="M22.8163 58.6257L30.5367 58.9515L22.8163 59.2772V58.6257Z" fill="#F8E4BE"/>
<path d="M22.9401 61.1211L30.6604 61.4468L22.9401 61.7726V61.1211Z" fill="#F8E4BE"/>
<path d="M23.0576 63.6167L30.7845 63.9425L23.0576 64.2682V63.6167Z" fill="#F8E4BE"/>
<path d="M23.1812 66.1118L30.9015 66.4376L23.1812 66.7633V66.1118Z" fill="#F8E4BE"/>
<path d="M23.2984 68.6069L31.0253 68.9327L23.2984 69.2584V68.6069Z" fill="#F8E4BE"/>
<path d="M23.4222 71.1023L31.1426 71.428L23.4222 71.7538V71.1023Z" fill="#F8E4BE"/>
<path d="M23.5394 73.5974L31.2663 73.9232L23.5394 74.2489V73.5974Z" fill="#F8E4BE"/>
<path d="M23.6633 76.0925L31.3836 76.4183L23.6633 76.744V76.0925Z" fill="#F8E4BE"/>
<path d="M23.7803 78.5881L31.5072 78.9139L23.7803 79.2396V78.5881Z" fill="#F8E4BE"/>
<path d="M42.4398 36.3964V38.8721C42.4415 39.3019 42.613 39.7135 42.9168 40.0174C43.2207 40.3212 43.6323 40.4927 44.062 40.4944H44.1141L21.2397 41.9864C19.5718 42.2209 18.4252 44.7813 18.8356 47.6805C19.2461 50.5798 20.9205 52.7493 22.5883 52.5082L48.7333 47.4721C49.5301 47.8163 50.3815 48.017 51.2482 48.0649V49.4461C51.2482 49.7053 51.3511 49.9539 51.5344 50.1372C51.7177 50.3204 51.9662 50.4234 52.2254 50.4234H52.5381V51.2117C52.5381 51.2463 52.5519 51.2794 52.5763 51.3038C52.6007 51.3283 52.6339 51.342 52.6684 51.342H55.8608C55.8954 51.342 55.9285 51.3283 55.953 51.3038C55.9774 51.2794 55.9911 51.2463 55.9911 51.2117V50.4234H56.3104C56.5696 50.4234 56.8181 50.3204 57.0014 50.1372C57.1847 49.9539 57.2876 49.7053 57.2876 49.4461V48.0649C59.2253 47.9504 61.0461 47.1003 62.378 45.6884C63.71 44.2765 64.4526 42.4094 64.4542 40.4684H64.4998C64.9301 40.4684 65.3427 40.2974 65.6469 39.9932C65.9512 39.689 66.1221 39.2763 66.1221 38.8461V36.3704L42.4398 36.3964Z" fill="#F8E4BE"/>
<path d="M88.6121 87.8199L83.4 81.5393H25.1031L19.8911 87.8199C19.8593 87.857 19.8365 87.901 19.8244 87.9484C19.8123 87.9957 19.8112 88.0452 19.8213 88.0931C19.8314 88.1409 19.8523 88.1858 19.8825 88.2243C19.9126 88.2628 19.9512 88.2938 19.9953 88.315C21.4156 89.0251 28.1001 91.3836 54.2451 91.3836C80.3901 91.3836 87.0811 89.0251 88.5013 88.315C88.5459 88.2944 88.5851 88.2639 88.616 88.2257C88.6468 88.1875 88.6684 88.1427 88.6791 88.0948C88.6899 88.0469 88.6894 87.9972 88.6778 87.9495C88.6661 87.9018 88.6437 87.8574 88.6121 87.8199Z" fill="#54372B"/>
<path d="M81.7452 82.1191C81.7452 82.1191 82.11 82.4384 82.6052 82.9726C83.1003 83.5069 83.7323 84.2756 84.3251 85.0249C84.918 85.7741 85.4783 86.6145 85.8692 87.2465C86.2601 87.8785 86.5207 88.341 86.5207 88.341C86.5207 88.341 86.1494 88.0218 85.6477 87.4941C85.038 86.8418 84.4618 86.159 83.9212 85.4483C83.3283 84.6665 82.7746 83.8521 82.3837 83.2137C81.9928 82.5752 81.7452 82.1191 81.7452 82.1191Z" fill="#F8E4BE"/>
<path d="M26.784 82.1191C26.784 82.1191 26.4191 82.4384 25.924 82.9726C25.4289 83.5069 24.8034 84.2756 24.204 85.0249C23.6046 85.7741 23.0509 86.6145 22.6599 87.2465C22.4349 87.6004 22.2283 87.9657 22.041 88.341C22.041 88.341 22.4124 88.0218 22.9075 87.4941C23.5195 86.842 24.0979 86.1592 24.6405 85.4483C25.1882 84.7297 25.6992 83.9839 26.1716 83.2137C26.5625 82.5947 26.784 82.1191 26.784 82.1191Z" fill="#F8E4BE"/>
<path d="M83.0417 88.0934C82.6508 87.3767 82.097 86.4581 81.4976 85.572C80.8982 84.686 80.2532 83.8455 79.745 83.2396C79.2369 82.6337 78.8525 82.2559 78.8525 82.2559C78.8525 82.2559 79.0675 82.7771 79.4519 83.4937C79.8363 84.2104 80.39 85.1355 80.9829 86.0216C81.532 86.8282 82.1212 87.6066 82.7485 88.354C83.0301 88.6938 83.3303 89.0179 83.6476 89.3247C83.6476 89.3247 83.4326 88.81 83.0417 88.0934Z" fill="#F8E4BE"/>
<path d="M78.3378 85.722C77.8036 84.8359 77.2302 83.9824 76.7742 83.3635C76.3181 82.7446 75.9663 82.3667 75.9663 82.3667C76.1119 82.7856 76.2793 83.1967 76.468 83.598C76.858 84.4649 77.2929 85.3108 77.771 86.1324C78.2494 86.9476 78.7736 87.735 79.3411 88.4909C79.5958 88.8363 79.8698 89.1669 80.162 89.4812C80.0119 89.0642 79.8401 88.6554 79.6473 88.2563C79.3476 87.5332 78.8395 86.6145 78.3378 85.722Z" fill="#F8E4BE"/>
<path d="M75.1715 85.9239C74.7555 85.0696 74.2967 84.2368 73.7968 83.4287C73.5748 83.062 73.3334 82.7075 73.0736 82.3667C73.1861 82.8076 73.3209 83.2425 73.4776 83.6697C73.7512 84.4189 74.1291 85.3897 74.6177 86.3279C75.0318 87.1844 75.4929 88.0175 75.9989 88.8231C76.2256 89.1876 76.4714 89.5399 76.7351 89.8786C76.7351 89.8786 76.5983 89.3443 76.3181 88.5756C75.9826 87.6722 75.5999 86.7871 75.1715 85.9239Z" fill="#F8E4BE"/>
<path d="M72.0117 86.0284C71.6208 85.0838 71.1842 84.1717 70.8259 83.5071C70.6276 83.1377 70.4101 82.7789 70.1744 82.4321C70.2556 82.8717 70.36 83.3066 70.4871 83.7351C70.7538 84.6368 71.0669 85.524 71.4253 86.3933C71.7774 87.2523 72.1753 88.0918 72.6176 88.9081C72.8147 89.2803 73.0322 89.6413 73.2691 89.9896C73.1825 89.5608 73.0738 89.1367 72.9433 88.7192C72.6795 87.8068 72.3686 86.9086 72.0117 86.0284Z" fill="#F8E4BE"/>
<path d="M68.8453 86.1649C68.5573 85.3034 68.2246 84.4575 67.8485 83.6306C67.6811 83.254 67.4941 82.8865 67.2882 82.5295C67.3386 82.9525 67.4126 83.3722 67.5097 83.7869C67.9089 85.5795 68.4918 87.3261 69.2492 88.999C69.4204 89.3761 69.6118 89.7436 69.8226 90.1001C69.768 89.6752 69.6919 89.2533 69.5945 88.8361C69.3917 87.9333 69.1416 87.0416 68.8453 86.1649Z" fill="#F8E4BE"/>
<path d="M65.6855 86.2626C65.458 85.3958 65.1862 84.5412 64.8711 83.7022C64.7329 83.3225 64.5741 82.9506 64.3955 82.5881C64.4182 83.0048 64.4617 83.4202 64.5258 83.8325C64.6605 84.7272 64.841 85.6145 65.0666 86.4907C65.2901 87.3565 65.562 88.2092 65.881 89.0446C66.0205 89.4279 66.1837 89.8021 66.3696 90.1652C66.3696 90.1652 66.3696 89.657 66.2328 88.9143C66.095 88.0218 65.9124 87.1368 65.6855 86.2626Z" fill="#F8E4BE"/>
<path d="M62.5518 86.3475C62.3693 85.3963 62.1413 84.4581 61.9002 83.7415C61.7858 83.3546 61.6509 82.974 61.4963 82.6013C61.4963 82.6013 61.4963 83.103 61.5354 83.8392C61.606 84.7265 61.7235 85.6094 61.8872 86.4843C62.0548 87.3646 62.2724 88.2347 62.5387 89.0904C62.6532 89.4772 62.788 89.8578 62.9427 90.2305C62.9517 89.8175 62.9387 89.4042 62.9036 88.9926C62.8189 88.2564 62.6886 87.3313 62.5518 86.3475Z" fill="#F8E4BE"/>
<path d="M58.9229 83.8196C58.8383 83.4274 58.7317 83.0402 58.6036 82.6599C58.5673 83.065 58.5521 83.4716 58.558 83.8782C58.5653 85.6313 58.7596 87.3785 59.1379 89.0903C59.2187 89.4828 59.3232 89.8701 59.4506 90.25C59.4912 89.8452 59.5086 89.4384 59.5027 89.0317C59.4962 88.15 59.444 87.2693 59.3464 86.3931C59.2356 85.4614 59.0792 84.5167 58.9229 83.8196Z" fill="#F8E4BE"/>
<path d="M55.939 83.8521C55.883 83.4554 55.8068 83.0618 55.7109 82.6729C55.7109 82.6729 55.6262 83.155 55.5741 83.8716C55.5118 84.7388 55.4966 85.6088 55.5285 86.4777C55.5676 87.4289 55.6588 88.3801 55.7631 89.0837C55.8189 89.4809 55.8972 89.8746 55.9976 90.2629C56.0655 89.8662 56.1111 89.466 56.1344 89.0641C56.1943 88.1968 56.2073 87.3269 56.1735 86.4581C56.1416 85.5859 56.0633 84.716 55.939 83.8521Z" fill="#F8E4BE"/>
<path d="M52.8185 82.6729C52.7226 83.0618 52.6465 83.4554 52.5905 83.8521C52.4862 84.5622 52.395 85.5134 52.3559 86.4581C52.3253 87.3269 52.3384 88.1967 52.395 89.0641C52.4221 89.4659 52.47 89.8661 52.5384 90.2629C52.6343 89.8739 52.7104 89.4804 52.7664 89.0837C52.8908 88.2198 52.9691 87.3499 53.0009 86.4777C53.0315 85.6089 53.0185 84.7391 52.9618 83.8716C52.9347 83.4698 52.8869 83.0697 52.8185 82.6729Z" fill="#F8E4BE"/>
<path d="M49.6128 83.8197C49.4565 84.5168 49.2936 85.4615 49.1828 86.4258C49.0851 87.302 49.033 88.1827 49.0265 89.0644C49.0265 89.7875 49.0786 90.2827 49.0786 90.2827C49.2066 89.9024 49.3132 89.5152 49.3978 89.123C49.5868 88.2625 49.7303 87.3926 49.8278 86.517C49.9255 85.5658 49.9777 84.6081 49.9777 83.9109C49.9777 83.2138 49.9255 82.6926 49.9255 82.6926C49.8029 83.063 49.6985 83.4391 49.6128 83.8197Z" fill="#F8E4BE"/>
<path d="M46.6354 83.7674C46.1336 85.4667 45.8083 87.2133 45.6647 88.9794C45.6295 89.3911 45.6165 89.8043 45.6256 90.2173C45.7802 89.8446 45.915 89.464 46.0295 89.0771C46.238 88.3865 46.466 87.4484 46.681 86.4711C46.896 85.4939 46.9742 84.5557 47.0263 83.826C47.0614 83.4144 47.0745 83.0012 47.0654 82.5881C47.0654 82.5881 46.8439 83.0768 46.6354 83.7674Z" fill="#F8E4BE"/>
<path d="M42.8502 86.2626C42.6215 87.1367 42.4367 88.0217 42.2964 88.9143C42.1857 89.657 42.1661 90.1652 42.1661 90.1652C42.3487 89.8006 42.5118 89.4265 42.6548 89.0446C42.9714 88.209 43.2411 87.3563 43.4626 86.4907C43.6933 85.6152 43.876 84.7279 44.0099 83.8325C44.0741 83.4202 44.1176 83.0048 44.1402 82.5881C43.9609 82.9511 43.8 83.323 43.6581 83.7022C43.3455 84.5414 43.0758 85.396 42.8502 86.2626Z" fill="#F8E4BE"/>
<path d="M39.6838 86.1649C39.3711 87.1096 39.0974 88.0804 38.9346 88.8231C38.8373 89.2403 38.7612 89.6621 38.7065 90.087C38.9173 89.7306 39.1087 89.363 39.2799 88.986C39.66 88.16 39.9949 87.314 40.2832 86.4516C40.5959 85.5004 40.863 84.5362 41.0259 83.7869C41.1888 83.0377 41.2474 82.5295 41.2474 82.5295C41.2474 82.5295 40.9933 82.953 40.6806 83.6306C40.3046 84.4575 39.9718 85.3034 39.6838 86.1649Z" fill="#F8E4BE"/>
<path d="M36.4915 86.0283C36.1071 86.9665 35.7683 87.9372 35.5468 88.6865C35.3253 89.4357 35.2275 89.9569 35.2275 89.9569C35.4657 89.6095 35.6832 89.2483 35.879 88.8754C36.3265 88.0618 36.7247 87.222 37.0713 86.3606C37.4326 85.4924 37.7458 84.605 38.0095 83.7024C38.231 82.9532 38.3287 82.3994 38.3287 82.3994C38.3287 82.3994 38.0421 82.8164 37.6772 83.4809C37.2377 84.3088 36.842 85.1591 36.4915 86.0283Z" fill="#F8E4BE"/>
<path d="M34.7324 83.4221C34.3219 84.0736 33.8203 84.9792 33.3577 85.9174C32.8951 86.8556 32.4847 87.8198 32.211 88.5756C31.9374 89.3313 31.7941 89.8786 31.7941 89.8786C31.7941 89.8786 32.1198 89.4747 32.5368 88.8231C32.9538 88.1716 33.4554 87.266 33.918 86.3279C34.3416 85.462 34.72 84.5748 35.0516 83.6697C35.3252 82.9205 35.4621 82.3667 35.4621 82.3667C35.2014 82.7061 34.9579 83.0584 34.7324 83.4221Z" fill="#F8E4BE"/>
<path d="M32.5824 82.3667C32.2961 82.6848 32.0264 83.0175 31.7745 83.3635C31.312 83.9824 30.7386 84.8359 30.2109 85.722C29.6832 86.608 29.1946 87.5397 28.8623 88.2563C28.53 88.973 28.3541 89.4812 28.3541 89.4812C28.6463 89.1669 28.9204 88.8363 29.175 88.4909C29.7403 87.7334 30.2644 86.9461 30.7452 86.1324C31.233 85.3108 31.6788 84.4649 32.0808 83.598C32.2694 83.1967 32.4369 82.7856 32.5824 82.3667Z" fill="#F8E4BE"/>
<path d="M29.6767 82.2559C29.6767 82.2559 29.2988 82.6272 28.7906 83.2396C28.2825 83.8521 27.6375 84.6925 27.0381 85.572C26.4387 86.4516 25.8784 87.3767 25.494 88.0934C25.1096 88.81 24.8816 89.3247 24.8816 89.3247C25.2002 89.0171 25.5024 88.6931 25.7872 88.354C26.4121 87.6064 26.9992 86.8279 27.5463 86.0216C28.1 85.206 28.611 84.3622 29.0773 83.4937C29.2991 83.0921 29.4992 82.6789 29.6767 82.2559Z" fill="#F8E4BE"/>
<path d="M73.3408 105.613L80.6181 104.101V104.518C80.6181 104.808 80.5028 105.087 80.2975 105.292C80.0923 105.497 79.8139 105.613 79.5236 105.613H73.3408Z" fill="#54372B"/>
<path d="M29.0056 105.613L36.283 104.101V104.518C36.283 104.808 36.1676 105.087 35.9624 105.292C35.7571 105.497 35.4787 105.613 35.1884 105.613H29.0056Z" fill="#54372B"/>
<path d="M86.6576 29.9465C86.6576 29.9465 86.6576 30.3505 86.6576 31.0997C86.6576 31.8489 86.7032 32.95 86.7097 34.3572C86.7162 35.7645 86.7097 37.4649 86.7097 39.4194C86.7097 41.374 86.6119 43.5695 86.5077 45.9736C86.4035 48.3777 86.2536 50.9707 86.0647 53.72C85.8757 56.4694 85.6477 59.3621 85.3741 62.3525C85.1004 65.3429 84.7942 68.4376 84.4489 71.5714C84.2665 73.135 84.0841 74.7181 83.9017 76.3013C83.5433 79.2657 83.6671 79.9954 83.0156 80.0279L46.7266 80.1582H30.7061L46.7201 79.9563C91.3614 79.5719 80.0252 79.6696 83.0026 79.65C83.0332 79.6485 83.0621 79.6356 83.0838 79.614C83.1054 79.5923 83.1183 79.5634 83.1199 79.5328C83.2632 78.4382 83.185 79.0637 83.5368 76.2752C83.7323 74.6943 83.9234 73.1198 84.1102 71.5518C84.475 68.4181 84.8008 65.3364 85.0809 62.346C85.3611 59.3556 85.6086 56.4824 85.8171 53.72C86.0256 50.9577 86.1754 48.3777 86.2992 45.9801C86.423 43.5826 86.5142 41.3805 86.5663 39.4325C86.6185 37.4845 86.6445 35.784 86.6771 34.3833C86.7097 32.9826 86.6771 31.875 86.6771 31.1258C86.6771 30.3765 86.6576 29.9465 86.6576 29.9465Z" fill="#54372B"/>
<path d="M24.8751 46.8403C25.13 48.2942 24.9298 49.7914 24.3017 51.1272C24.9162 50.2926 25.2349 49.277 25.2073 48.241C25.2734 46.9063 25.0512 45.5731 24.5558 44.332C24.2142 43.363 23.5759 42.5263 22.7316 41.9409L21.2462 42.0387C22.9075 41.7715 24.4646 43.9476 24.8751 46.8403Z" fill="#54372B"/>
<path d="M64.4216 40.4944H58.4408L64.4021 40.8853C64.4086 40.755 64.4216 40.6247 64.4216 40.4944Z" fill="#54372B"/>
<path d="M63.4313 41.5042C63.3745 42.3157 63.1549 43.1074 62.7856 43.8323C62.4162 44.5571 61.9047 45.2001 61.2815 45.723C60.6583 46.2458 59.9362 46.6379 59.1582 46.8757C58.3803 47.1135 57.5624 47.1922 56.7534 47.1071C58.3267 46.9073 59.8134 46.2734 61.0468 45.2764C62.1585 44.2497 62.9808 42.9488 63.4313 41.5042Z" fill="#54372B"/>
<path d="M66.0894 36.9894V36.3965H52.1797L66.0894 36.9894Z" fill="#54372B"/>
<path d="M87.5892 6.15991C87.5892 6.15991 87.8107 6.57035 88.156 7.37171C88.6367 8.54277 89.0012 9.75825 89.2441 11.0006C89.4163 11.8855 89.5381 12.7796 89.6089 13.6783C89.6936 14.6621 89.6871 15.7306 89.6936 16.8577C89.6936 19.1184 89.6936 21.6658 89.6936 24.4542C89.6936 25.1448 89.6936 25.855 89.6936 26.5782V27.1254C89.7157 27.344 89.6981 27.5647 89.6415 27.7769C89.5992 27.8945 89.5319 28.0014 89.4441 28.0903C89.3564 28.1792 89.2503 28.2479 89.1333 28.2916C89.0208 28.333 88.9011 28.3507 88.7815 28.3437H88.5013H83.8561H81.4455C80.634 28.3126 79.8213 28.3474 79.0154 28.448C78.2137 28.5913 77.4492 28.8948 76.7677 29.3406C76.4241 29.5698 76.1034 29.8316 75.81 30.1224L74.8848 31.0345L73.015 32.8783L72.0638 33.8164C71.7126 34.1558 71.2895 34.4119 70.8259 34.5657C70.3654 34.7013 69.8849 34.7564 69.4056 34.7285H65.3402L54.2646 34.7611L43.189 34.7285H39.0975C38.6204 34.7564 38.142 34.7013 37.6837 34.5657C37.2178 34.4128 36.7925 34.1566 36.4393 33.8164L35.4947 32.8783L33.6183 31.0345C33.0442 30.413 32.4139 29.846 31.7355 29.3406C31.0563 28.8949 30.2939 28.5912 29.4943 28.448C28.6862 28.3474 27.8713 28.3126 27.0576 28.3437H24.6471H20.0018C19.7833 28.3644 19.5628 28.3467 19.3503 28.2916C19.2333 28.2479 19.1272 28.1792 19.0395 28.0903C18.9517 28.0014 18.8844 27.8945 18.8421 27.7769C18.8036 27.666 18.7859 27.549 18.79 27.4316V26.6107C18.79 25.8876 18.79 25.1774 18.79 24.4868C18.79 21.6984 18.79 19.151 18.79 16.8902C18.79 15.7631 18.79 14.6947 18.8682 13.7109C18.941 12.812 19.065 11.918 19.2395 11.0332C19.4824 9.79084 19.8469 8.57536 20.3276 7.40429C20.6663 6.60294 20.8879 6.19248 20.8879 6.19248L20.7836 6.51823C20.712 6.72672 20.6077 7.04596 20.4774 7.46293C20.1038 8.65353 19.8014 9.86531 19.5718 11.0918C19.4074 11.9664 19.2921 12.8495 19.2265 13.737C19.1483 14.7077 19.1614 15.7566 19.1614 16.8902C19.1614 19.151 19.1614 21.6984 19.1614 24.4868C19.1614 25.1774 19.1614 25.8876 19.1614 26.6107V27.3925C19.1496 27.4572 19.1496 27.5234 19.1614 27.588C19.1816 27.6461 19.2152 27.6987 19.2593 27.7417C19.3033 27.7847 19.3568 27.8168 19.4155 27.8356C19.5729 27.8618 19.7336 27.8618 19.8911 27.8356H24.5363H26.9599C27.8016 27.7978 28.645 27.8304 29.4812 27.9333C30.3517 28.0815 31.1829 28.4052 31.9244 28.8845C32.2937 29.1337 32.6404 29.4149 32.9603 29.7249L34.0027 30.6501C34.6542 31.2625 35.2536 31.8684 35.8856 32.4873L36.8368 33.4125C37.1277 33.6938 37.4801 33.9034 37.8662 34.0249C38.2692 34.1455 38.6912 34.1897 39.1105 34.1552H40.4657H43.1955H54.2711H65.3468H68.0701H69.4252C69.8445 34.1905 70.2667 34.1463 70.6696 34.0249C71.0579 33.9044 71.4127 33.6946 71.7055 33.4125L72.6567 32.4873L74.5395 30.6501L75.4712 29.7445C75.7898 29.4329 76.1365 29.1516 76.5071 28.9041C77.2479 28.4234 78.0794 28.0997 78.9502 27.9528C79.7843 27.85 80.6255 27.8173 81.4651 27.8551H83.8887H88.5339C88.6938 27.8779 88.8561 27.8779 89.016 27.8551C89.0732 27.8351 89.1252 27.8024 89.168 27.7596C89.2109 27.7167 89.2436 27.6647 89.2636 27.6075C89.298 27.4537 89.309 27.2956 89.2962 27.1385V26.5912C89.2962 25.868 89.2962 25.1579 89.2962 24.4673C89.2962 21.6788 89.2962 19.1314 89.2962 16.8707C89.2962 15.7371 89.2962 14.6882 89.2375 13.7174C89.1719 12.8299 89.0566 11.9469 88.8922 11.0723C88.661 9.84551 88.3564 8.63369 87.9801 7.44338C87.8498 7.02642 87.7521 6.70717 87.6739 6.49869L87.5892 6.15991Z" fill="#54372B"/>
<path d="M88.8922 98.0224C88.8922 98.0224 88.801 98.296 88.586 98.7912C88.2789 99.5123 87.9219 100.211 87.5176 100.882C87.2471 101.262 86.8948 101.577 86.4866 101.802C86.0784 102.028 85.6247 102.159 85.1591 102.186C84.8073 102.186 84.5076 102.186 84.1362 102.186H79.4454C72.5785 102.231 63.4248 102.186 54.2646 102.186C45.1044 102.186 35.9507 102.186 29.0838 102.186H24.3995C24.0477 102.186 23.748 102.186 23.3831 102.186C23.0428 102.169 22.7078 102.094 22.3928 101.964C21.8388 101.742 21.3611 101.364 21.0182 100.876C20.6123 100.204 20.2531 99.5056 19.9432 98.7846C19.7347 98.2895 19.637 98.0159 19.637 98.0159C19.637 98.0159 19.8194 98.2374 20.1321 98.6674C20.4448 99.0974 20.8618 99.801 21.3569 100.622C21.6565 101.041 22.0705 101.364 22.5492 101.554C22.8204 101.658 23.1061 101.719 23.3962 101.736H24.3995H29.0838C35.9507 101.69 45.1109 101.736 54.2646 101.736C63.4183 101.736 72.5785 101.736 79.4454 101.736H84.1362H85.1331C85.4232 101.72 85.709 101.659 85.98 101.554C86.4587 101.364 86.8727 101.041 87.1723 100.622C87.6739 99.801 88.0909 99.0974 88.3971 98.6674C88.7033 98.2374 88.8922 98.0224 88.8922 98.0224Z" fill="#54372B"/>
<path d="M23.5527 2.44639L33.1494 2.29656L42.9872 2.21836L54.2648 2.18579L65.5424 2.21836L75.3867 2.29656L84.9834 2.44639L75.3867 2.58972L65.5424 2.67442L54.2648 2.70699L43.0068 2.6679L33.169 2.58972L23.5527 2.44639Z" fill="#54372B"/>
<path d="M89.2636 89.7483L89.0812 89.8395C88.9074 89.927 88.729 90.0053 88.547 90.074C87.8503 90.3536 87.1365 90.5886 86.41 90.7777C85.4784 91.0253 84.3317 91.2793 83.0092 91.5139C81.6866 91.7484 80.1816 91.9765 78.5333 92.1654C76.885 92.3543 75.0998 92.5237 73.2105 92.6801L70.2982 92.882L67.2557 93.0319C65.1839 93.1101 63.047 93.1882 60.8774 93.2273C58.7079 93.2664 56.4993 93.286 54.2907 93.3055C52.0821 93.3251 49.8865 93.3055 47.7105 93.2273C45.5344 93.1492 43.3975 93.1101 41.3322 93.0319L38.2897 92.882L35.3774 92.6801C33.4815 92.5302 31.6964 92.3543 30.0546 92.1654C28.4128 91.9765 26.9013 91.7549 25.5787 91.5139C24.2562 91.2728 23.1095 91.0253 22.1714 90.7777C21.4481 90.5874 20.7367 90.3546 20.0409 90.0806C19.7999 89.9828 19.6174 89.8981 19.5002 89.8395L19.3177 89.7483L19.5067 89.8265C19.6833 89.9121 19.8663 89.984 20.054 90.0415C20.7577 90.2884 21.4757 90.4929 22.2039 90.6539C23.1421 90.8689 24.2888 91.0839 25.6178 91.3054C26.9469 91.5269 28.4519 91.6637 30.0937 91.8331C31.7355 92.0025 33.5206 92.1263 35.41 92.2371C37.2994 92.3478 39.319 92.4195 41.3517 92.5042C43.3844 92.5889 45.5475 92.628 47.717 92.654C49.8865 92.6801 52.0951 92.654 54.2907 92.6931C56.4863 92.7322 58.7014 92.6931 60.8644 92.654C63.0274 92.6149 65.1709 92.5693 67.2296 92.5042L70.2722 92.3804L73.1779 92.2371C75.0673 92.1263 76.8524 91.9895 78.4942 91.8331C80.136 91.6768 81.641 91.5009 82.9701 91.3054C84.2991 91.11 85.4458 90.895 86.384 90.6539C87.112 90.492 87.8299 90.2875 88.5339 90.0415C88.7208 89.9817 88.9036 89.9098 89.0812 89.8265L89.2636 89.7483Z" fill="#54372B"/>
<path d="M24.4062 43.1852C24.4062 43.1852 25.9373 42.9702 28.2436 42.7161C29.3903 42.6054 30.7324 42.4425 32.1527 42.3122L36.6676 41.9083L41.1891 41.5695C42.6289 41.4587 43.9841 41.3936 45.1372 41.3219C47.4501 41.1916 48.9942 41.146 48.9942 41.146C48.9942 41.146 47.4631 41.361 45.1633 41.6151C44.0101 41.7324 42.668 41.8887 41.2542 42.019L36.7328 42.423L32.2113 42.7617C30.7715 42.8725 29.4229 42.9377 28.2632 43.0093C25.9503 43.1396 24.4062 43.1852 24.4062 43.1852Z" fill="#54372B"/>
<path d="M60.2845 14.2778C58.892 12.8867 57.0602 12.0215 55.1013 11.8294C53.1423 11.6374 51.1774 12.1304 49.5412 13.2246C47.905 14.3188 46.6988 15.9464 46.128 17.8301C45.5572 19.7139 45.6572 21.7373 46.4109 23.5556C47.1646 25.3739 48.5254 26.8747 50.2614 27.8022C51.9975 28.7298 54.0015 29.0267 55.932 28.6425C57.8624 28.2583 59.6 27.2167 60.8486 25.6951C62.0972 24.1735 62.7797 22.2661 62.7798 20.2978C62.7791 18.0396 61.8816 15.8742 60.2845 14.2778ZM48.7072 14.7404C50.1016 13.3476 51.9681 12.5292 53.9372 12.4471C55.9063 12.3651 57.8344 13.0254 59.3398 14.2974L48.2642 25.373C46.9899 23.8691 46.3275 21.9411 46.4084 19.9716C46.4893 18.002 47.3075 16.1348 48.7007 14.7404H48.7072ZM59.8284 25.8551C58.4329 27.2488 56.5646 28.0672 54.594 28.1481C52.6234 28.2289 50.6943 27.5663 49.1893 26.2916L60.265 15.216C61.5392 16.72 62.2016 18.6479 62.1207 20.6174C62.0399 22.587 61.2217 24.4542 59.8284 25.8486V25.8551Z" fill="#54372B"/>
<path d="M51.4761 21.2814L53.3655 19.4181L55.2288 17.5287L56.8315 15.8609C57.7697 14.8771 58.3756 14.2061 58.3756 14.2061C58.3756 14.2061 57.7241 14.8119 56.7142 15.7436L55.0464 17.3528L53.157 19.2162L51.2937 21.1055L49.691 22.7734C48.7528 23.7572 48.1469 24.4282 48.1469 24.4282C48.1469 24.4282 48.7984 23.8223 49.8083 22.8906L51.4761 21.2814Z" fill="#54372B"/>
<path d="M58.7011 17.7046L57.0333 19.3073L55.1439 21.1706L53.2806 23.06L51.6714 24.7343C50.7397 25.7116 50.1338 26.3892 50.1338 26.3892C50.1338 26.3892 50.7853 25.7833 51.7886 24.8451L53.4304 23.2424L55.3198 21.3791L57.1831 19.4897L58.7923 17.8218C59.724 16.8381 60.3299 16.167 60.3299 16.167C60.3299 16.167 59.6849 16.7729 58.7011 17.7046Z" fill="#54372B"/>
<path d="M64.3108 14.0821C61.8872 10.8962 58.3691 8.79837 54.2776 8.79837C50.1861 8.79837 46.655 10.8897 44.2183 14.0821C45.2094 12.2853 46.6642 10.7872 48.4312 9.74382C50.1981 8.70049 52.2126 8.15015 54.2646 8.15015C56.3166 8.15015 58.331 8.70049 60.098 9.74382C61.865 10.7872 63.3198 12.2853 64.3108 14.0821Z" fill="#54372B"/>
<path d="M84.1297 10.7141H69.158C68.6903 10.7141 68.3111 11.0933 68.3111 11.5611V18.5452C68.3111 19.013 68.6903 19.3922 69.158 19.3922H84.1297C84.5974 19.3922 84.9766 19.013 84.9766 18.5452V11.5611C84.9766 11.0933 84.5974 10.7141 84.1297 10.7141Z" fill="#54372B"/>
<path d="M84.3382 11.5479V18.5581C84.339 18.5834 84.3348 18.6087 84.3257 18.6324C84.3166 18.6561 84.3028 18.6777 84.2852 18.6959C84.2676 18.7141 84.2464 18.7287 84.2231 18.7386C84.1997 18.7485 84.1746 18.7535 84.1492 18.7535H69.1646C76.1422 17.4831 81.6279 15.3266 84.3382 11.5479Z" fill="#F8E4BE"/>
<path d="M70.5849 22.6757C70.5849 22.8873 70.522 23.0941 70.4044 23.27C70.2867 23.4458 70.1194 23.5827 69.9238 23.6634C69.7282 23.7441 69.513 23.7649 69.3056 23.7231C69.0981 23.6813 68.9077 23.5789 68.7586 23.4289C68.6094 23.2788 68.5082 23.0878 68.4677 22.8801C68.4272 22.6724 68.4493 22.4574 68.5312 22.2622C68.613 22.0671 68.751 21.9007 68.9276 21.7841C69.1041 21.6675 69.3113 21.6059 69.5229 21.6072C69.6629 21.6072 69.8016 21.6349 69.9308 21.6887C70.0601 21.7424 70.1775 21.8212 70.2762 21.9205C70.3749 22.0198 70.4529 22.1377 70.5059 22.2673C70.5589 22.3969 70.5857 22.5357 70.5849 22.6757Z" fill="#54372B"/>
<path d="M73.0801 23.7374C73.6666 23.7374 74.1421 23.262 74.1421 22.6755C74.1421 22.089 73.6666 21.6135 73.0801 21.6135C72.4936 21.6135 72.0182 22.089 72.0182 22.6755C72.0182 23.262 72.4936 23.7374 73.0801 23.7374Z" fill="#54372B"/>
<path d="M76.6439 23.7374C77.2304 23.7374 77.7059 23.262 77.7059 22.6755C77.7059 22.089 77.2304 21.6135 76.6439 21.6135C76.0574 21.6135 75.5819 22.089 75.5819 22.6755C75.5819 23.262 76.0574 23.7374 76.6439 23.7374Z" fill="#54372B"/>
<path d="M80.2076 23.7374C80.7941 23.7374 81.2696 23.262 81.2696 22.6755C81.2696 22.089 80.7941 21.6135 80.2076 21.6135C79.6211 21.6135 79.1457 22.089 79.1457 22.6755C79.1457 23.262 79.6211 23.7374 80.2076 23.7374Z" fill="#54372B"/>
<path d="M83.7779 23.7374C84.3644 23.7374 84.8399 23.262 84.8399 22.6755C84.8399 22.089 84.3644 21.6135 83.7779 21.6135C83.1914 21.6135 82.7159 22.089 82.7159 22.6755C82.7159 23.262 83.1914 23.7374 83.7779 23.7374Z" fill="#54372B"/>
<path d="M28.1782 12.1995H31.3315C31.5475 12.1995 31.7546 12.2853 31.9074 12.438C32.0601 12.5907 32.1459 12.7979 32.1459 13.0138V21.4378C32.1459 21.6538 32.0601 21.861 31.9074 22.0137C31.7546 22.1664 31.5475 22.2522 31.3315 22.2522H28.1782C27.9622 22.2522 27.7551 22.1664 27.6024 22.0137C27.4496 21.861 27.3638 21.6538 27.3638 21.4378V13.0138C27.3655 12.7984 27.4519 12.5922 27.6042 12.4399C27.7566 12.2875 27.9628 12.2012 28.1782 12.1995Z" fill="#54372B"/>
<path d="M31.3315 12.8379H28.1782C28.0811 12.8379 28.0023 12.9166 28.0023 13.0138V21.4378C28.0023 21.5349 28.0811 21.6137 28.1782 21.6137H31.3315C31.4287 21.6137 31.5074 21.5349 31.5074 21.4378V13.0138C31.5074 12.9166 31.4287 12.8379 31.3315 12.8379Z" fill="#F8E4BE"/>
<path d="M28.3213 21.2943C29.9957 20.7992 30.8817 19.0792 31.1879 16.4536V21.2943H28.3213Z" fill="#54372B"/>
<path d="M29.7549 14.3168C29.9348 14.3168 30.0806 14.1709 30.0806 13.991C30.0806 13.8111 29.9348 13.6653 29.7549 13.6653C29.575 13.6653 29.4291 13.8111 29.4291 13.991C29.4291 14.1709 29.575 14.3168 29.7549 14.3168Z" fill="#54372B"/>
<path d="M35.3383 14.3234C35.5483 14.3234 35.7536 14.2611 35.9283 14.1444C36.1029 14.0277 36.239 13.8619 36.3194 13.6678C36.3998 13.4738 36.4208 13.2602 36.3798 13.0542C36.3388 12.8482 36.2377 12.659 36.0892 12.5105C35.9407 12.362 35.7514 12.2608 35.5454 12.2199C35.3394 12.1789 35.1259 12.1999 34.9319 12.2803C34.7378 12.3607 34.572 12.4968 34.4553 12.6714C34.3386 12.8461 34.2763 13.0514 34.2763 13.2614C34.2763 13.5431 34.3882 13.8132 34.5873 14.0123C34.7865 14.2115 35.0566 14.3234 35.3383 14.3234Z" fill="#54372B"/>
<path d="M35.3383 16.1604C35.1267 16.1591 34.9195 16.2207 34.7429 16.3373C34.5664 16.4539 34.4284 16.6203 34.3465 16.8155C34.2647 17.0106 34.2426 17.2256 34.283 17.4333C34.3235 17.641 34.4248 17.832 34.5739 17.9821C34.7231 18.1322 34.9135 18.2346 35.1209 18.2763C35.3284 18.3181 35.5435 18.2973 35.7391 18.2166C35.9348 18.136 36.102 17.999 36.2197 17.8232C36.3374 17.6473 36.4002 17.4405 36.4003 17.2289C36.4011 17.0889 36.3743 16.9501 36.3213 16.8205C36.2683 16.6909 36.1902 16.5731 36.0915 16.4737C35.9928 16.3744 35.8755 16.2957 35.7462 16.2419C35.6169 16.1881 35.4783 16.1604 35.3383 16.1604Z" fill="#54372B"/>
<path d="M35.3383 20.1282C35.1264 20.1269 34.9189 20.1886 34.7422 20.3055C34.5655 20.4225 34.4276 20.5892 34.3459 20.7848C34.2642 20.9803 34.2425 21.1956 34.2835 21.4035C34.3245 21.6114 34.4264 21.8023 34.5763 21.9522C34.7261 22.102 34.9171 22.2039 35.1249 22.2449C35.3328 22.2859 35.5482 22.2642 35.7437 22.1825C35.9392 22.1009 36.106 21.9629 36.2229 21.7862C36.3398 21.6095 36.4015 21.402 36.4002 21.1902C36.4002 20.9085 36.2883 20.6384 36.0892 20.4392C35.89 20.2401 35.6199 20.1282 35.3383 20.1282Z" fill="#54372B"/>
<path d="M49.6389 97.2083C49.6052 97.2865 49.5565 97.3574 49.4955 97.4168C49.5574 97.4769 49.6081 97.5475 49.6454 97.6253C49.6817 97.7051 49.7006 97.7917 49.7006 97.8794C49.7006 97.9671 49.6817 98.0537 49.6454 98.1335C49.5967 98.2259 49.5276 98.3061 49.4434 98.368C49.3578 98.4366 49.2608 98.4895 49.1567 98.5244C49.044 98.5649 48.9248 98.5848 48.8049 98.583H47.1892V97.697H46.9156V97.1432H47.2022V96.2506H48.7984C49.0336 96.2394 49.265 96.3134 49.4499 96.4591C49.5312 96.5185 49.5976 96.5958 49.6439 96.6851C49.6902 96.7744 49.7153 96.8732 49.717 96.9738C49.7079 97.0566 49.6813 97.1366 49.6389 97.2083ZM48.9352 96.8565C48.8929 96.8223 48.8399 96.8039 48.7854 96.8044H47.8798V97.1432H48.7854C48.8399 97.1438 48.8929 97.1253 48.9352 97.0911C48.9541 97.0779 48.9694 97.0603 48.98 97.0399C48.9906 97.0195 48.9962 96.9968 48.9962 96.9738C48.9962 96.9508 48.9906 96.9281 48.98 96.9077C48.9694 96.8873 48.9541 96.8698 48.9352 96.8565ZM48.9352 97.7426C48.8922 97.7102 48.8392 97.694 48.7854 97.697H47.8798V98.0293H48.7854C48.8399 98.0298 48.8929 98.0114 48.9352 97.9771C48.9541 97.9639 48.9694 97.9463 48.98 97.9259C48.9906 97.9055 48.9962 97.8829 48.9962 97.8599C48.9962 97.8369 48.9906 97.8142 48.98 97.7938C48.9694 97.7734 48.9541 97.7558 48.9352 97.7426Z" fill="#54372B"/>
<path d="M52.7792 97.5991C52.7024 97.7251 52.6003 97.8338 52.4795 97.9184C52.5651 98.0109 52.6354 98.1165 52.688 98.2311C52.7341 98.3427 52.7584 98.4621 52.7596 98.5829H52.069C52.0707 98.5 52.0481 98.4185 52.0039 98.3484C51.9567 98.2696 51.8921 98.2027 51.8149 98.1529H51.0136V98.5764H50.323V98.1529H49.8604V97.5991H50.323V96.244H51.6912C51.9976 96.2348 52.2975 96.334 52.5381 96.5241C52.6426 96.5987 52.7286 96.6961 52.7896 96.8091C52.8506 96.922 52.8849 97.0474 52.8899 97.1756C52.8893 97.3239 52.8512 97.4696 52.7792 97.5991ZM52.043 96.9476C51.9399 96.8697 51.8138 96.8284 51.6846 96.8303H51.0331V97.6317H51.6846C51.8138 97.6336 51.9399 97.5924 52.043 97.5144C52.0882 97.4818 52.1249 97.4387 52.1499 97.3887C52.1749 97.3388 52.1874 97.2836 52.1863 97.2278C52.1908 97.1694 52.1806 97.1108 52.1567 97.0573C52.1328 97.0039 52.096 96.9572 52.0495 96.9216L52.043 96.9476Z" fill="#54372B"/>
<path d="M55.0464 98.5829V98.1594H54.0821V98.5829H53.385V98.1594H53.0853V97.6056H53.385V97.1365C53.3867 97.0083 53.419 96.8823 53.479 96.7691C53.539 96.6558 53.6252 96.5584 53.7303 96.485C53.9656 96.3016 54.254 96.1993 54.5523 96.1934C54.8506 96.1875 55.1428 96.2784 55.3851 96.4524C55.4892 96.5269 55.5745 96.6245 55.6344 96.7376C55.6943 96.8506 55.7272 96.976 55.7304 97.1039V98.5503L55.0464 98.5829ZM55.0464 97.4883V97.1365C55.0456 97.0835 55.0329 97.0314 55.0093 96.984C54.9856 96.9367 54.9515 96.8953 54.9095 96.8629C54.8115 96.785 54.6895 96.7435 54.5642 96.7456C54.4389 96.7424 54.3165 96.784 54.2189 96.8629C54.1762 96.8949 54.1411 96.9361 54.1163 96.9835C54.0915 97.0308 54.0776 97.0831 54.0756 97.1365V97.6056H55.0464V97.4883Z" fill="#54372B"/>
<path d="M58.0498 98.5827V96.8041H57.2745C57.1171 96.8017 56.9634 96.8522 56.838 96.9474C56.7821 96.9861 56.7364 97.0377 56.7046 97.0978C56.6729 97.1579 56.6561 97.2248 56.6556 97.2927V98.5957H55.9585V96.2633H56.6882V96.3871C56.7823 96.3461 56.8806 96.3155 56.9814 96.2959C57.0887 96.2748 57.1977 96.2639 57.3071 96.2633H58.1215C58.2881 96.26 58.4511 96.3128 58.5841 96.4132C58.6417 96.4567 58.6886 96.5127 58.7214 96.5771C58.7541 96.6414 58.7718 96.7124 58.773 96.7846V98.5957L58.0498 98.5827Z" fill="#54372B"/>
<path d="M61.3921 98.4071C61.2612 98.5122 61.0974 98.5676 60.9295 98.5634H58.975V96.231H60.9295C61.0966 96.2244 61.2606 96.2775 61.3921 96.3809C61.4506 96.425 61.4981 96.4821 61.5308 96.5477C61.5636 96.6132 61.5808 96.6855 61.581 96.7587V98.0618C61.576 98.1295 61.5566 98.1953 61.524 98.2549C61.4914 98.3144 61.4464 98.3663 61.3921 98.4071ZM60.8904 96.7848H59.6721V98.0096H60.8904V96.7848Z" fill="#54372B"/>
</svg>
