<svg width="108" height="107" viewBox="0 0 108 107" fill="none" xmlns="http://www.w3.org/2000/svg">
<path d="M54.1739 66.8082C59.5921 66.862 64.9718 65.8936 70.0312 63.9539C74.9828 69.4681 83.6276 70.2252 83.6276 70.2252C93.0601 75.2279 92.436 79.5349 93.4386 83.9545C93.576 84.5891 93.8877 85.1727 94.3387 85.6398C94.7897 86.1068 95.362 86.4388 95.9914 86.5982C96.6208 86.7577 97.2822 86.7384 97.9011 86.5424C98.5201 86.3465 99.0721 85.9817 99.4951 85.4891C100.914 83.7615 101.996 81.7836 102.687 79.6577C108.713 59.9947 98.3288 54.0814 98.3288 54.0814C98.646 31.339 78.3896 30.275 78.3896 30.275V30.3466C71.617 19.5023 54.1535 20.0036 54.1535 20.0036C54.1535 20.0036 36.69 19.5023 29.9072 30.3466V30.275C29.9072 30.275 9.70188 31.2981 9.99857 54.0098C9.99857 54.0098 -0.385397 59.964 5.64037 79.5861C6.33759 81.7113 7.42337 83.6887 8.84251 85.4175C9.26413 85.9108 9.81535 86.2764 10.4339 86.4728C11.0524 86.6693 11.7135 86.6888 12.3425 86.5292C12.9716 86.3695 13.5434 86.0371 13.9933 85.5694C14.4433 85.1018 14.7534 84.5176 14.8888 83.8829C15.9118 79.4633 15.2775 75.1563 24.71 70.1536C24.71 70.1536 33.3548 69.3965 38.3064 63.8823C43.3638 65.8491 48.7476 66.8419 54.1739 66.8082Z" fill="#F8E4BE"/>
<path d="M78.3077 48.2503C80.2008 45.0976 81.3746 41.5659 81.7452 37.9073C81.9215 35.4371 81.6157 32.9561 80.8449 30.6027C80.0361 30.4223 79.2157 30.2992 78.3896 30.2344C79.7372 32.6156 80.4719 35.2945 80.5278 38.03C80.5345 41.5571 79.7771 45.0439 78.3077 48.2503Z" fill="#54372B"/>
<path d="M26.6027 37.9072C26.9683 41.567 28.1424 45.0997 30.0402 48.2503C28.5698 45.0401 27.8091 41.5506 27.8099 38.0198C27.8721 35.2851 28.6064 32.6078 29.9481 30.2241C29.122 30.289 28.3015 30.4121 27.4928 30.5924C26.7241 32.9498 26.4218 35.4343 26.6027 37.9072Z" fill="#54372B"/>
<path d="M97.7866 59.6675C98.679 58.3144 99.3877 56.8489 99.8941 55.3093C99.4225 54.8191 98.8975 54.3832 98.3288 54.01C98.3288 53.8668 98.3288 53.7235 98.3288 53.5701C97.8858 57.752 96.0521 61.6643 93.1215 64.6804C94.9425 63.2782 96.5188 61.5844 97.7866 59.6675Z" fill="#54372B"/>
<path d="M15.2264 64.7109C12.2883 61.6977 10.4473 57.7851 9.99858 53.6006C9.99858 53.754 9.99858 53.8973 9.99858 54.0405C9.43386 54.4031 8.91217 54.8287 8.44354 55.3091C8.93036 56.8457 9.61836 58.3112 10.4896 59.6673C11.7801 61.5979 13.3805 63.302 15.2264 64.7109Z" fill="#54372B"/>
<path d="M100.027 60.3323C102.186 63.913 102.544 68.3018 102.073 72.3838C101.603 76.4658 100.221 80.6808 97.2853 83.6374C101.179 76.516 102.162 68.1629 100.027 60.3323Z" fill="#54372B"/>
<path d="M8.31054 60.3323C6.15548 68.1716 7.12743 76.5414 11.0216 83.6783C8.07523 80.7115 6.71458 76.5169 6.23375 72.4247C5.75291 68.3325 6.16213 63.9027 8.31054 60.3323Z" fill="#54372B"/>
<path d="M83.249 34.2241C85.3166 34.697 87.2676 35.5822 88.985 36.8268C90.7024 38.0714 92.1511 39.6497 93.2442 41.4673C95.3755 45.279 96.1611 49.6972 95.4745 54.0099C94.8402 49.9177 94.165 45.8255 92.0166 42.2039C89.8698 38.7997 86.8397 36.0418 83.249 34.2241Z" fill="#54372B"/>
<path d="M25.0988 34.2241C21.5074 36.036 18.4766 38.7909 16.3313 42.1937C14.1726 45.8255 13.4974 49.9177 12.8631 54.0099C12.1827 49.6949 12.9755 45.2765 15.1138 41.4673C16.2044 39.6497 17.6511 38.0711 19.3669 36.8264C21.0827 35.5818 23.0324 34.6966 25.0988 34.2241Z" fill="#54372B"/>
<path d="M32.3522 31.8198C33.771 29.3248 35.8208 27.2468 38.2962 25.794C41.3307 24.0763 44.6512 22.9221 48.097 22.3873C55.0026 21.2107 62.6755 21.9269 68.9672 25.17C71.9046 26.6591 74.3462 28.9693 75.9956 31.8198C74.1662 29.6744 71.8942 27.9503 69.3355 26.7659C66.4081 25.4632 63.3063 24.5947 60.1281 24.1878C53.4351 23.2059 46.6028 23.9092 40.2502 26.2339C37.1928 27.408 34.4778 29.3282 32.3522 31.8198Z" fill="#54372B"/>
<path d="M35.5032 34.0706C35.2372 34.1422 35.0326 34.5003 34.7973 35.3494L34.4495 36.618L35.0429 35.8405C35.7795 34.8481 36.0148 33.9376 35.5032 34.0706Z" fill="#54372B"/>
<path d="M69.5709 31.9837C69.4072 32.352 69.4379 32.5054 69.7346 32.8942C70.42 33.7843 70.6553 32.7714 69.9903 31.8711C69.8062 31.6052 69.7141 31.6358 69.5709 31.9837Z" fill="#54372B"/>
<path d="M53.4476 32.2395C53.6728 32.1654 53.9066 32.1207 54.1433 32.1065C54.399 32.1065 54.3479 32.0042 53.908 31.5949C53.4681 31.1857 53.2225 31.1039 53.1202 31.8712C53.0691 32.3213 53.0998 32.3622 53.4476 32.2395Z" fill="#54372B"/>
<path d="M18.2444 44.5877C18.4696 44.5136 18.7034 44.4689 18.9401 44.4547C19.1958 44.4547 19.1447 44.3524 18.6945 43.9432C18.2444 43.534 18.0193 43.4419 17.917 44.2194C17.8659 44.6695 17.8965 44.7105 18.2444 44.5877Z" fill="#54372B"/>
<path d="M15.9425 48.6183C15.9425 48.8229 16.0244 48.9968 16.1369 48.9968C16.2494 48.9968 16.4233 48.8229 16.5052 48.6183C16.587 48.4137 16.5052 48.25 16.3108 48.25C16.2139 48.2526 16.1218 48.2922 16.0532 48.3607C15.9847 48.4293 15.9451 48.5214 15.9425 48.6183Z" fill="#54372B"/>
<path d="M88.5792 50.8078C88.5792 51.0124 88.661 51.1863 88.7735 51.1863C88.8861 51.1863 89.06 51.0124 89.1418 50.8078C89.2237 50.6031 89.1418 50.4395 88.9475 50.4395C88.8506 50.442 88.7584 50.4817 88.6899 50.5502C88.6214 50.6187 88.5817 50.7109 88.5792 50.8078Z" fill="#54372B"/>
<path d="M33.365 41.0479C33.3037 40.6182 33.2218 40.5875 32.8228 40.8433L32.3522 41.1502L32.7614 41.4674C33.273 41.8663 33.4673 41.7333 33.365 41.0479Z" fill="#54372B"/>
<path d="M19.9938 51.6874C19.9324 51.268 19.8506 51.2373 19.4516 51.4828L18.981 51.7897L19.3902 52.1069C19.9017 52.5059 20.0961 52.3729 19.9938 51.6874Z" fill="#54372B"/>
<path d="M66.6654 29.4569C66.7036 29.5445 66.7665 29.619 66.8465 29.6714C66.9264 29.7238 67.0199 29.7517 67.1155 29.7517C67.2111 29.7517 67.3046 29.7238 67.3846 29.6714C67.4645 29.619 67.5275 29.5445 67.5657 29.4569C67.7294 29.2011 67.6987 29.109 67.3611 28.8226C67.1919 28.6682 66.9885 28.556 66.7677 28.4952C66.4915 28.4338 66.4403 29.017 66.6654 29.4569Z" fill="#54372B"/>
<path d="M88.4564 47.3804C88.4946 47.468 88.5575 47.5426 88.6375 47.5949C88.7174 47.6473 88.8109 47.6752 88.9065 47.6752C89.0021 47.6752 89.0956 47.6473 89.1756 47.5949C89.2555 47.5426 89.3185 47.468 89.3567 47.3804C89.5101 47.1349 89.4794 47.0428 89.1418 46.7563C88.9753 46.5982 88.771 46.4854 88.5484 46.429C88.2824 46.4494 88.2211 46.9814 88.4564 47.3804Z" fill="#54372B"/>
<path d="M15.7993 52.6186C16.0346 52.905 16.3108 52.6186 16.229 52.148C16.207 52.0603 16.1573 51.982 16.0872 51.9248C16.0172 51.8677 15.9305 51.8347 15.8402 51.8308C15.5026 51.8308 15.4821 52.2298 15.7993 52.6186Z" fill="#54372B"/>
<path d="M56.5269 26.0297C56.7827 26.265 56.9668 26.3059 57.0282 26.132C57.0896 25.9581 56.7315 25.6409 56.5167 25.733C56.3019 25.8251 56.3428 25.866 56.5269 26.0297Z" fill="#54372B"/>
<path d="M21.6 44.4342C21.8557 44.6695 22.0399 44.7002 22.1013 44.5263C22.1627 44.3524 21.8046 44.0353 21.5795 44.1376C21.3545 44.2399 21.4158 44.2603 21.6 44.4342Z" fill="#54372B"/>
<path d="M49.3247 34.306C49.6725 34.6743 49.7134 34.6641 49.9487 34.1014C50.184 33.5387 50.0919 33.0784 49.6827 33.0784C49.2735 33.0784 48.987 33.9275 49.3247 34.306Z" fill="#54372B"/>
<path d="M67.801 37.2831C67.7397 37.3244 67.6903 37.3811 67.658 37.4476C67.6256 37.5141 67.6115 37.5879 67.6168 37.6616C67.6168 37.7844 67.801 37.856 68.067 37.856C68.333 37.856 68.5069 37.7333 68.2 37.3036C68.0567 37.099 68.026 37.099 67.801 37.2831Z" fill="#54372B"/>
<path d="M52.7212 26.7457C52.7681 26.9788 52.8509 27.2031 52.9668 27.4107C53.2123 27.8506 53.5192 27.7074 53.6727 27.1038C53.8261 26.5002 53.7954 26.4081 53.1918 26.3672C52.7724 26.3876 52.6905 26.3876 52.7212 26.7457Z" fill="#54372B"/>
<path d="M57.6012 33.4773C57.2943 33.4773 57.3147 33.8967 57.6012 34.1014C57.8876 34.306 57.9183 34.2446 57.9593 34.1014C58.0002 33.9581 57.8263 33.4773 57.6012 33.4773Z" fill="#54372B"/>
<path d="M23.7689 37.8867C23.4517 37.8867 23.4722 38.3062 23.7689 38.5108C24.0655 38.7154 24.086 38.654 24.1269 38.5108C24.1678 38.3676 23.9837 37.8867 23.7689 37.8867Z" fill="#54372B"/>
<path d="M14.8683 55.6263C14.3568 55.6263 14.0601 56.1787 14.4386 56.4242C14.8172 56.6698 15.1036 56.5163 15.2162 56.0252C15.2276 55.9749 15.2271 55.9226 15.2145 55.8726C15.2019 55.8225 15.1777 55.7761 15.1438 55.7372C15.1098 55.6983 15.0672 55.668 15.0193 55.6487C14.9715 55.6294 14.9197 55.6217 14.8683 55.6263Z" fill="#54372B"/>
<path d="M91.2289 52.2708C90.7173 52.2708 90.4104 52.8232 90.7992 53.0688C91.1879 53.3143 91.4642 53.1608 91.5767 52.68C91.5901 52.629 91.591 52.5755 91.5793 52.5241C91.5677 52.4727 91.5437 52.4248 91.5096 52.3846C91.4754 52.3445 91.432 52.3131 91.3832 52.2933C91.3343 52.2735 91.2814 52.2657 91.2289 52.2708Z" fill="#54372B"/>
<path d="M17.6919 54.9614C17.6006 54.9655 17.5137 55.0015 17.4463 55.0632C17.379 55.125 17.3355 55.2085 17.3236 55.299C17.3236 55.4832 17.385 55.6264 17.4975 55.6264C17.6101 55.6264 17.7737 55.4832 17.8658 55.299C17.9579 55.1149 17.8761 54.9614 17.6919 54.9614Z" fill="#54372B"/>
<path d="M92.0575 56.1992C91.9674 56.2036 91.8818 56.24 91.8162 56.3019C91.7505 56.3638 91.7091 56.4471 91.6995 56.5368C91.6995 56.7107 91.7608 56.8642 91.8734 56.8642C91.9859 56.8642 92.1496 56.7107 92.2315 56.5368C92.3133 56.3629 92.2417 56.1992 92.0575 56.1992Z" fill="#54372B"/>
<path d="M60.8545 27.4823C60.9363 27.8097 60.9772 27.8097 61.5399 27.4823C62.1026 27.155 62.0412 26.9094 61.4785 26.889C60.9159 26.8685 60.7624 27.0936 60.8545 27.4823Z" fill="#54372B"/>
<path d="M38.5008 30.715C38.4549 30.7673 38.3982 30.8091 38.3346 30.8373C38.2711 30.8656 38.2021 30.8797 38.1325 30.8787C37.7745 30.8787 37.6517 30.981 37.621 31.3186C37.5903 31.6562 37.621 31.6153 37.9484 31.6665L38.4292 31.7688C38.5008 31.7688 38.5827 31.6767 38.6134 31.5437C38.644 31.4107 38.7157 31.2879 38.777 31.2879C38.8384 31.2879 38.8589 31.2265 38.8384 31.1447C38.8331 31.093 38.8406 31.0407 38.8602 30.9925C38.8798 30.9444 38.911 30.9018 38.951 30.8685C38.9867 30.8447 39.0164 30.8129 39.0377 30.7756C39.0591 30.7383 39.0714 30.6965 39.0737 30.6536C39.043 30.4797 38.644 30.5616 38.5008 30.715Z" fill="#54372B"/>
<path d="M60.7419 30.8685C60.4043 30.7866 60.3123 30.9606 60.4964 31.3391C60.5222 31.4055 60.5634 31.4648 60.6166 31.5121C60.6698 31.5595 60.7334 31.5935 60.8023 31.6115C60.8712 31.6295 60.9434 31.6309 61.0129 31.6155C61.0825 31.6002 61.1474 31.5685 61.2023 31.5232C61.3967 31.38 61.1512 30.9606 60.7419 30.8685Z" fill="#54372B"/>
<path d="M45.8872 29.5692C45.7427 29.5733 45.6014 29.5262 45.4882 29.4362C45.4519 29.4072 45.4068 29.3914 45.3604 29.3914C45.3139 29.3914 45.2688 29.4072 45.2325 29.4362C45.1097 29.5283 45.2325 29.9171 45.4882 30.5411C45.5496 30.6639 45.744 30.7253 45.9793 30.6946C46.2146 30.6639 46.3578 30.5821 46.2658 30.1115C46.1737 29.6409 46.1123 29.5692 45.8872 29.5692Z" fill="#54372B"/>
<path d="M92.6918 49.7028C92.5485 49.7098 92.4074 49.6663 92.2928 49.58C92.2565 49.551 92.2114 49.5352 92.1649 49.5352C92.1184 49.5352 92.0733 49.551 92.037 49.58C91.9143 49.6721 92.037 50.0609 92.2928 50.6849C92.3542 50.8077 92.5486 50.8691 92.7839 50.8384C93.0192 50.8077 93.1624 50.7259 93.0703 50.2553C92.9782 49.7847 92.9169 49.7028 92.6918 49.7028Z" fill="#54372B"/>
<path d="M48.8131 27.6665C48.3221 27.6665 48.3118 27.7381 48.7211 28.3622C49.1303 28.9862 49.7441 29.0169 49.6213 28.6179C49.519 28.045 49.1917 27.6665 48.8131 27.6665Z" fill="#54372B"/>
<path d="M46.3476 34.4391C46.3575 34.4891 46.3866 34.5332 46.4287 34.5619C46.4708 34.5906 46.5225 34.6016 46.5727 34.5926L47.1251 34.4596L47.5241 34.3778L47.2581 34.122C46.7568 33.6412 46.1634 33.8458 46.3476 34.4391Z" fill="#54372B"/>
<path d="M24.2087 41.8969C24.2186 41.9469 24.2478 41.991 24.2899 42.0197C24.332 42.0484 24.3837 42.0594 24.4338 42.0504L24.9965 41.9174L25.3852 41.8355L25.1192 41.5798C24.6179 41.0989 24.0246 41.3035 24.2087 41.8969Z" fill="#54372B"/>
<path d="M84.1903 40.4238C84.2002 40.4737 84.2293 40.5178 84.2714 40.5465C84.3135 40.5752 84.3652 40.5862 84.4153 40.5772C84.4972 40.5772 84.7529 40.4954 84.9678 40.4442L85.3668 40.3624L85.1008 40.1066C84.5995 39.6258 84.0061 39.8304 84.1903 40.4238Z" fill="#54372B"/>
<path d="M60.8852 36.3622C61.2125 36.6793 61.3251 36.6589 61.6115 36.2496C61.898 35.8404 61.7752 35.554 61.3046 35.554C60.834 35.554 60.5885 36.0757 60.8852 36.3622Z" fill="#54372B"/>
<path d="M41.5598 32.137C41.0482 32.137 41.0278 32.8633 41.5598 33.6511C42.0917 34.4388 42.3884 34.5514 42.4703 33.9375C42.5521 33.3237 41.9485 32.137 41.5598 32.137Z" fill="#54372B"/>
<path d="M83.9038 43.5442C83.3923 43.5442 83.3718 44.2706 83.9038 45.0583C84.4358 45.8461 84.7325 45.9586 84.8143 45.3448C84.8962 44.7309 84.2926 43.5442 83.9038 43.5442Z" fill="#54372B"/>
<path d="M41.3551 36.8022C41.1979 36.8266 41.0371 36.8015 40.8947 36.7305C40.7311 36.5464 40.5162 36.8328 40.5776 37.1705C40.5951 37.3109 40.6479 37.4446 40.731 37.5592C40.8743 37.6717 41.0073 37.6308 41.2017 37.4262C41.3138 37.3191 41.451 37.2418 41.6006 37.2011C41.6263 37.1974 41.651 37.1886 41.6732 37.1752C41.6954 37.1618 41.7147 37.1441 41.7299 37.1231C41.7452 37.1021 41.7561 37.0783 41.762 37.0531C41.7679 37.0278 41.7687 37.0016 41.7643 36.9761C41.7132 36.8226 41.6518 36.7919 41.3551 36.8022Z" fill="#54372B"/>
<path d="M25.3444 45.5901C25.1872 45.6159 25.0259 45.5908 24.884 45.5185C24.7101 45.3343 24.5054 45.631 24.5566 45.9584C24.5741 46.0989 24.6269 46.2326 24.7101 46.3472C24.8635 46.4597 24.9863 46.4188 25.1909 46.2244C25.296 46.1113 25.4307 46.0298 25.5797 45.9891C25.6067 45.9887 25.6332 45.982 25.6572 45.9696C25.6811 45.9572 25.7019 45.9393 25.7178 45.9175C25.7337 45.8956 25.7442 45.8704 25.7487 45.8438C25.7531 45.8171 25.7513 45.7898 25.7433 45.764C25.6615 45.6106 25.5899 45.5799 25.3444 45.5901Z" fill="#54372B"/>
<path d="M21.0475 40.3419C20.8893 40.3654 20.7277 40.3366 20.5872 40.2601C20.4235 40.0861 20.2086 40.3726 20.27 40.7C20.2807 40.8404 20.3303 40.975 20.4132 41.0887C20.5667 41.2013 20.6997 41.1706 20.8941 40.966C20.9904 40.8524 21.1135 40.7645 21.2521 40.7102C21.2791 40.7065 21.3051 40.6974 21.3286 40.6835C21.352 40.6695 21.3724 40.6511 21.3886 40.6292C21.4048 40.6072 21.4165 40.5823 21.4229 40.5558C21.4293 40.5293 21.4304 40.5018 21.4261 40.4749C21.4158 40.3521 21.3442 40.3215 21.0475 40.3419Z" fill="#54372B"/>
<path d="M74.6145 35.329C74.6145 35.6768 74.6963 35.82 74.8191 35.8712C75.0237 35.9633 75.0646 35.9633 75.2181 35.8712C75.3715 35.7791 75.0851 34.8481 74.86 34.7458C74.6349 34.6435 74.5633 34.7663 74.6145 35.329Z" fill="#54372B"/>
<path d="M67.535 34.5719C67.5492 34.5123 67.5415 34.4495 67.5134 34.3951C67.4852 34.3406 67.4384 34.2981 67.3815 34.2752C67.136 34.1525 66.5529 34.6435 66.6552 34.8891C66.7575 35.1346 67.4225 34.7765 67.535 34.5719Z" fill="#54372B"/>
<path d="M78.6556 41.8356C78.7783 41.7026 78.7783 41.6208 78.6556 41.4673C78.5713 41.3728 78.461 41.3052 78.3384 41.2729C78.1441 41.2729 77.8269 41.764 77.8781 41.9788C77.9292 42.1937 78.3998 42.1016 78.6556 41.8356Z" fill="#54372B"/>
<path d="M53.2225 35.595C53.0997 35.595 52.9463 35.8507 52.8747 36.1781C52.8031 36.5055 52.8747 36.7101 53.0077 36.618C53.3453 36.3827 53.5192 35.595 53.2225 35.595Z" fill="#54372B"/>
<path d="M86.2773 47.9434C86.1545 47.9434 85.9908 48.2094 85.9192 48.5265C85.8476 48.8436 85.9192 49.0585 86.0624 48.9664C86.4 48.7823 86.5637 47.9434 86.2773 47.9434Z" fill="#54372B"/>
<path d="M23.3903 48.4751C23.2676 48.4751 23.1141 48.7309 23.0425 49.048C22.9709 49.3652 23.0425 49.58 23.1755 49.4879C23.5131 49.3038 23.687 48.4751 23.3903 48.4751Z" fill="#54372B"/>
<path d="M37.8665 38.6642C37.9995 38.6642 38.1018 38.48 38.0916 38.255C38.0813 38.0299 37.9688 37.8662 37.8358 37.8662C37.7028 37.8662 37.6107 38.0401 37.621 38.255C37.6312 38.4698 37.7335 38.6642 37.8665 38.6642Z" fill="#54372B"/>
<path d="M20.0347 47.8717C20.1677 47.8717 20.2598 47.6978 20.2598 47.4727C20.2598 47.2476 20.137 47.0737 20.004 47.0737C19.871 47.0737 19.7789 47.2579 19.7892 47.4727C19.7994 47.6876 19.9017 47.8717 20.0347 47.8717Z" fill="#54372B"/>
<path d="M56.9464 29.0883C57.2738 29.4771 57.6012 29.4668 57.6933 29.0883C57.7853 28.7098 57.2329 28.1983 56.9055 28.362C56.5781 28.5256 56.6497 28.72 56.9464 29.0883Z" fill="#54372B"/>
<path d="M87.5561 42.3474C87.8835 42.7463 88.2109 42.7259 88.3029 42.3474C88.395 41.9688 87.8426 41.4573 87.5152 41.621C87.1878 41.7847 87.2594 41.9791 87.5561 42.3474Z" fill="#54372B"/>
<path d="M75.525 38.8174C75.7705 38.6844 75.6784 38.5207 75.2795 38.4082C75.2455 38.3917 75.2085 38.3826 75.1708 38.3815C75.133 38.3804 75.0955 38.3873 75.0607 38.4018C75.0258 38.4163 74.9945 38.4381 74.9687 38.4656C74.9429 38.4932 74.9233 38.5259 74.9112 38.5617C74.8395 38.6947 74.8498 38.8277 74.9112 38.8584C75.008 38.9061 75.1158 38.9275 75.2236 38.9203C75.3313 38.9132 75.4353 38.8777 75.525 38.8174Z" fill="#54372B"/>
<path d="M92.2519 46.1017C92.4974 45.9687 92.3951 45.8051 92.0064 45.6925C91.812 45.6414 91.7199 45.6925 91.6278 45.846C91.5357 45.9994 91.5664 46.112 91.6278 46.1427C91.7265 46.1903 91.8359 46.2116 91.9452 46.2045C92.0546 46.1973 92.1603 46.1619 92.2519 46.1017Z" fill="#54372B"/>
<path d="M71.0441 37.15C71.0441 36.8943 70.8906 36.884 70.5735 37.15C70.2563 37.416 70.42 37.9173 70.9008 37.9173C70.9929 37.9173 71.085 37.9173 71.0952 37.9992C71.0952 38.1219 71.4124 38.1219 71.4737 37.9992C71.5351 37.8764 71.4226 37.7946 71.2998 37.6513C71.1759 37.5069 71.0883 37.3351 71.0441 37.15Z" fill="#54372B"/>
<path d="M77.6734 37.2215C77.8166 37.4875 78.0417 37.467 78.1645 37.1601C78.2872 36.8532 77.9189 36.4951 77.6325 36.4951C77.346 36.4951 77.5199 36.935 77.6734 37.2215Z" fill="#54372B"/>
<path d="M31.2474 36.8841C31.3935 36.7348 31.4838 36.5397 31.5031 36.3317C31.5031 36.0964 31.5031 36.0862 31.2576 36.3317C31.1145 36.4843 31.0217 36.6771 30.9916 36.8841C30.9814 37.0785 31.0325 37.0888 31.2474 36.8841Z" fill="#54372B"/>
<path d="M42.7362 26.3877C43.6877 31.237 44.547 36.0965 45.3859 40.9662C46.3476 46.5725 47.1558 52.2914 54.2353 52.2914C61.3149 52.2914 62.1435 46.6134 63.0745 41.0378C63.8827 36.1578 64.7216 31.2983 65.6424 26.4388C65.1513 31.3597 64.6193 36.2601 63.9748 41.1708C63.2075 47.3091 61.9287 53.5906 54.2353 53.5804C46.542 53.5702 45.2836 47.3296 44.4857 41.1503C43.8411 36.1783 43.2375 31.2779 42.7362 26.3877Z" fill="#54372B"/>
</svg>
