<svg width="108" height="107" viewBox="0 0 108 107" fill="none" xmlns="http://www.w3.org/2000/svg">
<path d="M104.516 66.0603H4.54367C4.34533 66.0664 4.15281 66.1288 3.98861 66.2402C3.82442 66.3517 3.69529 66.5075 3.61633 66.6895C3.53737 66.8716 3.51184 67.0723 3.54269 67.2684C3.57354 67.4644 3.65952 67.6476 3.79058 67.7966C6.65651 70.8194 13.5075 76.7186 23.5278 76.8755C23.7949 76.882 24.0494 76.9906 24.239 77.1788L26.9899 79.9297C27.1847 80.1229 27.4477 80.2319 27.7221 80.233H81.3379C81.6123 80.2319 81.8752 80.1229 82.07 79.9297L84.8209 77.1788C85.0106 76.9906 85.265 76.882 85.5322 76.8755C95.5524 76.7186 102.403 70.8194 105.269 67.7966C105.4 67.6476 105.486 67.4644 105.517 67.2684C105.548 67.0723 105.523 66.8716 105.444 66.6895C105.365 66.5075 105.236 66.3517 105.071 66.2402C104.907 66.1288 104.715 66.0664 104.516 66.0603Z" fill="#F8E4BE"/>
<path d="M104.401 39.4719C103.784 34.9429 100.217 31.8678 95.9394 30.8009C92.813 30.1135 89.5872 30.0036 86.4213 30.4767C86.4213 29.0019 86.4945 27.82 86.4945 27.046C86.4945 26.7686 86.3843 26.5025 86.1881 26.3064C85.992 26.1102 85.7259 26 85.4485 26H23.5906C23.3132 26 23.0471 26.1102 22.851 26.3064C22.6548 26.5025 22.5446 26.7686 22.5446 27.046C22.5446 33.2171 23.4023 65.1293 39.3845 66.0602H69.7068C72.6403 65.8735 75.3911 64.5711 77.3946 62.4203C81.2969 62.208 85.1379 61.3564 88.7642 59.8995C93.1093 58.1194 96.9726 55.3384 100.04 51.7829C102.843 48.4462 105.018 43.9486 104.401 39.4719ZM97.5293 47.0551C95.3022 50.6405 92.1472 53.5571 88.3981 55.496C85.8511 56.8596 83.121 57.8495 80.2919 58.4352C83.0428 53.6133 84.5908 47.2434 85.4381 41.407C87.1508 40.8531 88.6852 39.8531 89.8834 38.5097C90.6833 37.5707 91.7666 36.9172 92.9702 36.6474C94.1738 36.3776 95.4325 36.5063 96.5566 37.0139C100.615 39.0431 99.3493 43.9068 97.5293 47.0551Z" fill="#F8E4BE"/>
<path d="M80.658 59.4183C86.2931 58.154 91.4411 55.2839 95.4793 51.1552C97.7432 48.8739 99.298 45.9858 99.956 42.8399C100.468 39.702 99.0564 36.7733 95.9081 35.8738C94.2322 35.4299 92.4491 35.6588 90.9398 36.5118C89.8166 37.2393 88.7658 38.0729 87.8019 39.0012C89.58 37.244 91.0758 35.5391 93.7534 35.309C95.3034 35.159 96.8522 35.6057 98.0843 36.558C99.3164 37.5102 100.139 38.8964 100.385 40.4341C100.876 43.7289 99.161 47.1283 97.2469 49.6804C95.153 52.36 92.5378 54.5874 89.5591 56.2281C86.7973 57.7948 83.7863 58.874 80.658 59.4183Z" fill="#54372B"/>
<path d="M25.5779 76.5405L34.6254 76.4673L54.4986 76.4045L74.3718 76.4673L83.4194 76.5405L74.3718 76.6137H54.4986H34.6254L25.5779 76.5405Z" fill="#54372B"/>
<path d="M5.64194 68.1208L54.53 67.9849L103.418 68.1208L54.53 68.2464L5.64194 68.1208Z" fill="#54372B"/>
<path d="M35.3367 61.3323C31.3516 57.2531 29.7199 51.2388 28.4334 45.8417C27.288 40.9077 26.5879 35.8809 26.3415 30.8217L29.4793 30.6753C29.8454 41.0721 30.7554 51.7827 35.3367 61.3323Z" fill="#54372B"/>
</svg>
