<svg width="107" height="107" viewBox="0 0 107 107" fill="none" xmlns="http://www.w3.org/2000/svg">
<path d="M82.9159 11.9473H82.0035C81.7769 11.9433 81.557 11.8694 81.374 11.7356C81.191 11.6017 81.0538 11.4146 80.9813 11.1998L79.2775 6.07754C78.9424 5.30038 78.387 4.63843 77.6798 4.17349C76.9726 3.70855 76.1447 3.461 75.2984 3.46143H30.7696C29.9233 3.4672 29.0966 3.71712 28.3888 4.18117C27.6811 4.64522 27.1222 5.3037 26.7795 6.07754L25.0867 11.1998C25.0142 11.4146 24.8771 11.6017 24.694 11.7356C24.511 11.8694 24.2911 11.9433 24.0644 11.9473H23.1521C22.4699 11.9473 21.8157 12.2183 21.3333 12.7006C20.851 13.183 20.58 13.8373 20.58 14.5194C20.58 15.2016 20.851 15.8558 21.3333 16.3382C21.8157 16.8206 22.4699 17.0916 23.1521 17.0916H23.8556C24.129 17.0902 24.3932 17.1908 24.5964 17.3737C24.7997 17.5567 24.9275 17.8088 24.9548 18.0809L32.4514 98.6196C32.4514 98.6196 32.4514 104.039 53.0285 104.039C73.6056 104.039 73.6386 98.6196 73.6386 98.6196L81.1352 18.0809C81.1625 17.8088 81.2903 17.5567 81.4935 17.3737C81.6968 17.1908 81.9609 17.0902 82.2344 17.0916H82.9379C83.62 17.0916 84.2743 16.8206 84.7566 16.3382C85.239 15.8558 85.51 15.2016 85.51 14.5194C85.51 13.8373 85.239 13.183 84.7566 12.7006C84.2743 12.2183 83.62 11.9473 82.9379 11.9473H82.9159Z" fill="#F8E4BE"/>
<path d="M30.1211 38.2622L33.2758 72.2496C46.4365 73.5034 59.6865 73.5034 72.8472 72.2496L75.9909 38.2622C60.7664 40.2628 45.3456 40.2628 30.1211 38.2622Z" fill="#54372B"/>
<path d="M70.7147 18.1357L66.8345 18.3006C65.4605 18.3556 63.9986 18.3885 62.4926 18.4325C59.4808 18.5095 56.2711 18.5534 53.0505 18.5534C49.8298 18.5534 46.6201 18.5534 43.6083 18.4325C42.1134 18.4325 40.6514 18.3556 39.2774 18.3006L35.3863 18.1357C32.99 18.0148 30.9894 17.9159 29.5934 17.817L27.395 17.6851L29.5934 17.8609C30.9784 17.9818 32.968 18.1467 35.3753 18.2786L39.2555 18.4985L43.6523 18.6743C46.6751 18.7623 49.8958 18.8172 53.1164 18.8282C56.3371 18.8392 59.5688 18.7623 62.5916 18.6743C65.6144 18.5864 68.4174 18.4325 70.8136 18.2786C73.2099 18.1248 75.2105 17.9818 76.5955 17.8609L78.7939 17.6851L76.5955 17.817C75.1225 17.9159 73.122 18.0148 70.7147 18.1357Z" fill="#54372B"/>
<path d="M35.3972 11.3977C40.2118 11.6065 46.6311 11.7824 53.0505 11.8044C59.4698 11.8264 65.9002 11.6065 70.7147 11.3977C73.122 11.2988 75.1115 11.1778 76.5185 11.0899L78.7169 10.958C78.7169 10.958 75.5182 11.1119 70.7037 11.2768C65.8892 11.4417 59.4698 11.5845 53.0505 11.5626C46.6311 11.5406 40.2118 11.4527 35.4632 11.2768C30.7146 11.1009 27.45 10.958 27.45 10.958L29.6484 11.0899C30.9895 11.1778 32.968 11.2988 35.3972 11.3977Z" fill="#54372B"/>
<path d="M59.5798 48.8256C58.9604 47.7546 58.1779 46.7867 57.2604 45.9567C56.1003 44.9215 54.5999 44.3494 53.045 44.3494C51.4902 44.3494 49.9897 44.9215 48.8295 45.9567C47.9248 46.7888 47.1503 47.7522 46.5322 48.8147C45.2927 51.3099 44.6477 54.0582 44.6477 56.8443C44.6477 59.6305 45.2927 62.3788 46.5322 64.874C46.7696 65.256 47.0302 65.6231 47.3126 65.9732C47.9978 66.8423 48.8711 67.5447 49.8668 68.0276C50.8625 68.5106 51.9548 68.7615 53.0615 68.7615C54.1681 68.7615 55.2604 68.5106 56.2561 68.0276C57.2519 67.5447 58.1252 66.8423 58.8103 65.9732C59.095 65.6223 59.3592 65.2553 59.6018 64.874C60.8413 62.3788 61.4863 59.6305 61.4863 56.8443C61.4863 54.0582 60.8413 51.3099 59.6018 48.8147L59.5798 48.8256Z" fill="#F8E4BE"/>
<path d="M55.3478 45.374C56.6894 46.1478 57.849 47.201 58.7479 48.4622C59.6469 49.7234 60.2642 51.1631 60.5581 52.6837C61.4164 56.2224 61.1552 59.9402 59.8106 63.324C59.2371 64.7034 58.3216 65.914 57.1505 66.8415C59.4259 64.9399 60.3272 61.7742 60.602 58.9382C61.0893 55.3893 60.3981 51.7786 58.6345 48.6606C57.8125 47.322 56.6865 46.196 55.3478 45.374Z" fill="#54372B"/>
<path d="M53.8529 46.4731L53.798 46.7369C53.798 46.9055 53.765 47.1473 53.699 47.4624C53.6401 48.3335 53.6401 49.2075 53.699 50.0785C53.699 50.6171 53.699 51.1777 53.765 51.8153C53.8157 52.4588 53.9449 53.0937 54.1497 53.7059C54.3695 54.3591 54.6685 54.983 55.04 55.5636C55.4234 56.1838 55.7473 56.8389 56.0073 57.5201C56.2509 58.2259 56.3482 58.9739 56.2931 59.7186C56.2322 60.421 56.1071 61.1164 55.9194 61.7961C55.7545 62.4556 55.5457 63.0821 55.3478 63.6757C55.15 64.2693 54.9631 64.8299 54.7433 65.3245C54.3896 66.1225 53.9191 66.8635 53.3473 67.5229C53.1384 67.7647 52.9625 67.9406 52.8416 68.0615L52.6548 68.2374L52.8307 68.0505C53.0026 67.8732 53.164 67.686 53.3143 67.4899C53.8348 66.7931 54.2634 66.032 54.5894 65.2256C54.7872 64.7309 54.9631 64.1264 55.139 63.5768C55.3149 63.0272 55.5017 62.3567 55.6666 61.6971C55.8416 61.0306 55.9593 60.3502 56.0183 59.6636C56.0626 58.9617 55.9616 58.2582 55.7216 57.5971C55.4743 56.9286 55.1652 56.2846 54.7982 55.6735C54.4252 55.0728 54.1227 54.431 53.8969 53.7609C53.6977 53.1299 53.5795 52.4761 53.5451 51.8153C53.5451 51.1777 53.5451 50.5952 53.5451 50.0566C53.5242 49.1785 53.572 48.3001 53.688 47.4294C53.7207 47.1849 53.7684 46.9426 53.8309 46.704L53.8529 46.4731Z" fill="#54372B"/>
<path d="M53.2813 45.9565C53.006 47.4717 52.8991 49.0126 52.9625 50.5512C52.8402 52.1693 53.1553 53.7904 53.8749 55.2448C54.3947 56.0794 54.8468 56.9542 55.2269 57.8609C55.7875 59.5867 55.0181 61.5653 54.5454 63.28C54.1796 64.9712 53.3454 66.5253 52.1381 67.7648C52.5651 66.3716 52.874 64.9449 53.0615 63.4998C53.1448 61.9483 52.882 60.3976 52.292 58.9601C51.631 57.7079 51.0402 56.4198 50.5223 55.1019C50.2635 53.312 50.507 51.4853 51.2258 49.8257C51.553 48.3755 52.2628 47.0395 53.2813 45.9565Z" fill="#54372B"/>
<path d="M53.0505 71.7881C43.8831 71.7881 36.4195 64.973 36.4195 56.5861C36.4195 48.1991 43.8831 41.373 53.0505 41.373C62.2178 41.373 69.6925 48.1991 69.6925 56.5861C69.6925 64.973 62.2288 71.7881 53.0505 71.7881ZM53.0505 42.1095C44.2568 42.1095 37.189 48.5949 37.189 56.5531C37.189 64.5113 44.3008 70.9856 53.0505 70.9856C61.8001 70.9856 68.923 64.5113 68.923 56.5531C68.923 48.5949 61.8001 42.1425 53.0505 42.1425V42.1095Z" fill="#F8E4BE"/>
</svg>
