<svg width="64" height="184" viewBox="0 0 64 184" fill="none" xmlns="http://www.w3.org/2000/svg">
<path fill-rule="evenodd" clip-rule="evenodd" d="M91.0891 179.758C94.6308 178.051 97.8947 175.391 100.693 171.93C96.5844 171.788 92.4927 171.145 88.4653 170.008C79.5479 167.061 71.3188 161.012 64.5544 152.431C51.3366 135.197 45.297 116.246 39.802 94.0002C35.3187 74.125 31.8286 53.8448 29.3564 33.3039C28.1188 26.4378 27.3268 19.5717 26.0891 12.7056C25.6931 10.9891 25.099 9.06653 24.7525 7.41867C24.406 5.7708 24.3069 6.52608 25.297 7.41867C26.2871 8.31126 24.505 6.66336 22.1287 5.77077C-2.17821 20.5329 -7.57423 69.5568 10.6931 117.139C28.9604 164.721 65.1485 193.97 90.9901 180.376L91.0891 179.758ZM102.327 170.282C118.168 149.684 119.604 107.87 104.109 67.2911C89.703 29.4588 64.5049 3.84829 41.8812 0.758545C42.5247 3.02436 42.8713 5.22154 43.1188 6.04547C44.1089 13.8728 44.7029 21.7001 45.297 29.4588C46.1499 49.8172 47.8857 70.0861 50.495 90.1552C53.9604 111.303 57.9208 129.979 68.6139 147.83C74.2032 156.43 81.3213 162.846 89.2574 166.437C93.5089 168.288 97.8898 169.508 102.327 170.076V170.282Z" fill="#AF7F58" fill-opacity="0.15"/>
</svg>
