<svg width="16" height="20" viewBox="0 0 16 20" fill="none" xmlns="http://www.w3.org/2000/svg">
<path d="M8 9.99951C8.55 9.99951 9.021 9.80351 9.413 9.41151C9.80433 9.02018 10 8.54951 10 7.99951C10 7.44951 9.80433 6.97851 9.413 6.58651C9.021 6.19518 8.55 5.99951 8 5.99951C7.45 5.99951 6.97933 6.19518 6.588 6.58651C6.196 6.97851 6 7.44951 6 7.99951C6 8.54951 6.196 9.02018 6.588 9.41151C6.97933 9.80351 7.45 9.99951 8 9.99951ZM8 19.6245C7.86667 19.6245 7.73333 19.5995 7.6 19.5495C7.46667 19.4995 7.35 19.4328 7.25 19.3495C4.81667 17.1995 3 15.2038 1.8 13.3625C0.6 11.5205 0 9.79951 0 8.19951C0 5.69951 0.804333 3.70784 2.413 2.22451C4.021 0.741178 5.88333 -0.000488281 8 -0.000488281C10.1167 -0.000488281 11.979 0.741178 13.587 2.22451C15.1957 3.70784 16 5.69951 16 8.19951C16 9.79951 15.4 11.5205 14.2 13.3625C13 15.2038 11.1833 17.1995 8.75 19.3495C8.65 19.4328 8.53333 19.4995 8.4 19.5495C8.26667 19.5995 8.13333 19.6245 8 19.6245Z" fill="#FFF3E0"/>
</svg>
