<svg width="28" height="27" viewBox="0 0 28 27" fill="none" xmlns="http://www.w3.org/2000/svg">
<path d="M13.9802 -0.000488281C17.551 -0.000488281 17.9965 0.0126538 19.3974 0.0783649C20.7971 0.144076 21.7499 0.363551 22.5884 0.689478C23.4557 1.02329 24.1865 1.47538 24.9172 2.20477C25.5854 2.86175 26.1025 3.65645 26.4325 4.53357C26.7571 5.37073 26.9779 6.32486 27.0436 7.7245C27.1053 9.12546 27.1224 9.57098 27.1224 13.1417C27.1224 16.7125 27.1093 17.158 27.0436 18.5589C26.9779 19.9586 26.7571 20.9114 26.4325 21.7499C26.1035 22.6275 25.5863 23.4224 24.9172 24.0787C24.26 24.7467 23.4654 25.2638 22.5884 25.594C21.7512 25.9186 20.7971 26.1394 19.3974 26.2051C17.9965 26.2668 17.551 26.2839 13.9802 26.2839C10.4095 26.2839 9.96396 26.2708 8.563 26.2051C7.16336 26.1394 6.21055 25.9186 5.37207 25.594C4.4946 25.2647 3.69976 24.7475 3.04327 24.0787C2.37487 23.4218 1.85776 22.6271 1.52798 21.7499C1.20205 20.9127 0.982577 19.9586 0.916866 18.5589C0.855097 17.158 0.838013 16.7125 0.838013 13.1417C0.838013 9.57098 0.851155 9.12546 0.916866 7.7245C0.982577 6.32354 1.20205 5.37205 1.52798 4.53357C1.85684 3.65591 2.37408 2.86099 3.04327 2.20477C3.69995 1.53614 4.49474 1.01899 5.37207 0.689478C6.21055 0.363551 7.16204 0.144076 8.563 0.0783649C9.96396 0.0165965 10.4095 -0.000488281 13.9802 -0.000488281ZM13.9802 6.57061C12.2375 6.57062 10.5661 7.26293 9.33375 8.49525C8.10143 9.72757 7.40912 11.399 7.40912 13.1417C7.40912 14.8845 8.10143 16.5559 9.33375 17.7882C10.5661 19.0205 12.2375 19.7128 13.9802 19.7128C15.723 19.7128 17.3944 19.0205 18.6267 17.7882C19.859 16.5559 20.5513 14.8845 20.5513 13.1417C20.5513 11.399 19.859 9.72757 18.6267 8.49525C17.3944 7.26293 15.723 6.57061 13.9802 6.57061ZM22.5227 6.24206C22.5227 5.80637 22.3496 5.38852 22.0415 5.08044C21.7334 4.77236 21.3156 4.59928 20.8799 4.59928C20.4442 4.59928 20.0263 4.77236 19.7183 5.08044C19.4102 5.38852 19.2371 5.80637 19.2371 6.24206C19.2371 6.67775 19.4102 7.0956 19.7183 7.40368C20.0263 7.71176 20.4442 7.88484 20.8799 7.88484C21.3156 7.88484 21.7334 7.71176 22.0415 7.40368C22.3496 7.0956 22.5227 6.67775 22.5227 6.24206ZM13.9802 9.19906C15.0259 9.19906 16.0287 9.61444 16.7681 10.3538C17.5075 11.0932 17.9229 12.0961 17.9229 13.1417C17.9229 14.1874 17.5075 15.1902 16.7681 15.9296C16.0287 16.669 15.0259 17.0844 13.9802 17.0844C12.9346 17.0844 11.9317 16.669 11.1923 15.9296C10.4529 15.1902 10.0376 14.1874 10.0376 13.1417C10.0376 12.0961 10.4529 11.0932 11.1923 10.3538C11.9317 9.61444 12.9346 9.19906 13.9802 9.19906Z" fill="#FFF3E0"/>
</svg>
