<svg width="26" height="27" viewBox="0 0 26 27" fill="none" xmlns="http://www.w3.org/2000/svg">
<path fill-rule="evenodd" clip-rule="evenodd" d="M3.70275 0.182129C2.72072 0.182129 1.77891 0.572239 1.08451 1.26664C0.39011 1.96104 0 2.90285 0 3.88488V22.3986C0 23.3806 0.39011 24.3225 1.08451 25.0169C1.77891 25.7113 2.72072 26.1014 3.70275 26.1014H22.2165C23.1985 26.1014 24.1403 25.7113 24.8347 25.0169C25.5291 24.3225 25.9192 23.3806 25.9192 22.3986V3.88488C25.9192 2.90285 25.5291 1.96104 24.8347 1.26664C24.1403 0.572239 23.1985 0.182129 22.2165 0.182129H3.70275ZM5.74296 8.13748C6.32973 8.13748 6.89246 7.90439 7.30736 7.48949C7.72226 7.07458 7.95536 6.51186 7.95536 5.92509C7.95536 5.33833 7.72226 4.7756 7.30736 4.36069C6.89246 3.94579 6.32973 3.7127 5.74296 3.7127C5.1562 3.7127 4.59347 3.94579 4.17857 4.36069C3.76366 4.7756 3.53057 5.33833 3.53057 5.92509C3.53057 6.51186 3.76366 7.07458 4.17857 7.48949C4.59347 7.90439 5.1562 8.13748 5.74296 8.13748ZM7.59434 22.0524V9.87222H3.89159V22.0524H7.59434ZM10.053 9.87222H13.7557V11.5033C14.3019 10.6479 15.5016 9.49639 17.7325 9.49639C20.3947 9.49639 21.8407 11.2608 21.8407 14.6173C21.8407 14.7784 21.8555 15.5134 21.8555 15.5134V22.0506H18.1527V15.5152C18.1527 14.6173 17.9639 12.8529 15.9681 12.8529C13.9705 12.8529 13.802 15.0709 13.7557 16.5224V22.0506H10.053V9.87222Z" fill="#FFF3E0"/>
</svg>
