<svg width="24" height="24" viewBox="0 0 24 24" fill="none" xmlns="http://www.w3.org/2000/svg">
<path d="M12 11.9995C12.55 11.9995 13.021 11.8035 13.413 11.4115C13.8043 11.0202 14 10.5495 14 9.99951C14 9.44951 13.8043 8.97851 13.413 8.58651C13.021 8.19518 12.55 7.99951 12 7.99951C11.45 7.99951 10.9793 8.19518 10.588 8.58651C10.196 8.97851 10 9.44951 10 9.99951C10 10.5495 10.196 11.0202 10.588 11.4115C10.9793 11.8035 11.45 11.9995 12 11.9995ZM12 21.6245C11.8667 21.6245 11.7333 21.5995 11.6 21.5495C11.4667 21.4995 11.35 21.4328 11.25 21.3495C8.81667 19.1995 7 17.2038 5.8 15.3625C4.6 13.5205 4 11.7995 4 10.1995C4 7.69951 4.80433 5.70784 6.413 4.22451C8.021 2.74118 9.88333 1.99951 12 1.99951C14.1167 1.99951 15.979 2.74118 17.587 4.22451C19.1957 5.70784 20 7.69951 20 10.1995C20 11.7995 19.4 13.5205 18.2 15.3625C17 17.2038 15.1833 19.1995 12.75 21.3495C12.65 21.4328 12.5333 21.4995 12.4 21.5495C12.2667 21.5995 12.1333 21.6245 12 21.6245Z" fill="#FFF3E0"/>
</svg>
