<svg width="20" height="16" viewBox="0 0 20 16" fill="none" xmlns="http://www.w3.org/2000/svg">
<path d="M18 -0.000488281H2C0.9 -0.000488281 0.00999999 0.899512 0.00999999 1.99951L0 13.9995C0 15.0995 0.9 15.9995 2 15.9995H18C19.1 15.9995 20 15.0995 20 13.9995V1.99951C20 0.899512 19.1 -0.000488281 18 -0.000488281ZM17.6 4.24951L10.53 8.66951C10.21 8.86951 9.79 8.86951 9.47 8.66951L2.4 4.24951C2.29973 4.19322 2.21192 4.11717 2.14189 4.02597C2.07186 3.93476 2.02106 3.83029 1.99258 3.71888C1.96409 3.60748 1.9585 3.49145 1.97616 3.37782C1.99381 3.26419 2.03434 3.15533 2.09528 3.05781C2.15623 2.9603 2.23632 2.87617 2.33073 2.81051C2.42513 2.74485 2.53187 2.69902 2.6445 2.67581C2.75712 2.6526 2.87328 2.65248 2.98595 2.67546C3.09863 2.69844 3.20546 2.74405 3.3 2.80951L10 6.99951L16.7 2.80951C16.7945 2.74405 16.9014 2.69844 17.014 2.67546C17.1267 2.65248 17.2429 2.6526 17.3555 2.67581C17.4681 2.69902 17.5749 2.74485 17.6693 2.81051C17.7637 2.87617 17.8438 2.9603 17.9047 3.05781C17.9657 3.15533 18.0062 3.26419 18.0238 3.37782C18.0415 3.49145 18.0359 3.60748 18.0074 3.71888C17.9789 3.83029 17.9281 3.93476 17.8581 4.02597C17.7881 4.11717 17.7003 4.19322 17.6 4.24951Z" fill="#FFF3E0"/>
</svg>
