<svg width="27" height="27" viewBox="0 0 27 27" fill="none" xmlns="http://www.w3.org/2000/svg">
<path d="M26.838 2.95938V23.3241C26.838 24.8573 25.5941 26.1011 24.061 26.1011H9.85196C10.4189 25.1523 11.1479 23.787 11.4372 22.6704C11.6107 22.005 12.3223 19.2917 12.3223 19.2917C12.7852 20.1768 14.139 20.9232 15.5795 20.9232C19.8666 20.9232 22.9502 16.9833 22.9502 12.0888C22.9502 7.39681 19.1202 3.88505 14.191 3.88505C8.05848 3.88505 4.80706 7.9985 4.80706 12.4822C4.80706 14.565 5.91787 17.1568 7.68821 17.9842C7.96013 18.1114 8.09898 18.0536 8.16262 17.7932C8.2089 17.5965 8.45189 16.6304 8.55603 16.1849C8.59074 16.0403 8.57338 15.9188 8.45767 15.7799C7.87334 15.0683 7.39894 13.7608 7.39894 12.5401C7.39894 9.40436 9.77097 6.37279 13.815 6.37279C17.3036 6.37279 19.7508 8.7506 19.7508 12.1524C19.7508 15.994 17.8127 18.6553 15.2845 18.6553C13.8902 18.6553 12.8488 17.504 13.1786 16.0865C13.5778 14.3972 14.353 12.5748 14.353 11.354C14.353 8.28777 9.98503 8.7101 9.98503 12.8004C9.98503 14.0558 10.4074 14.9121 10.4074 14.9121C8.59074 22.5951 8.31882 22.6935 8.69488 26.0548L8.82216 26.1011H3.69626C2.16312 26.1011 0.91925 24.8573 0.91925 23.3241V2.95938C0.91925 1.42624 2.16312 0.182373 3.69626 0.182373H24.061C25.5941 0.182373 26.838 1.42624 26.838 2.95938Z" fill="#FFF3E0"/>
</svg>
