<svg width="24" height="24" viewBox="0 0 24 24" fill="none" xmlns="http://www.w3.org/2000/svg">
<path d="M20 3.99951H4C2.9 3.99951 2.01 4.89951 2.01 5.99951L2 17.9995C2 19.0995 2.9 19.9995 4 19.9995H20C21.1 19.9995 22 19.0995 22 17.9995V5.99951C22 4.89951 21.1 3.99951 20 3.99951ZM19.6 8.24951L12.53 12.6695C12.21 12.8695 11.79 12.8695 11.47 12.6695L4.4 8.24951C4.29973 8.19322 4.21192 8.11717 4.14189 8.02597C4.07186 7.93476 4.02106 7.83029 3.99258 7.71888C3.96409 7.60748 3.9585 7.49145 3.97616 7.37782C3.99381 7.26419 4.03434 7.15533 4.09528 7.05781C4.15623 6.9603 4.23632 6.87617 4.33073 6.81051C4.42513 6.74485 4.53187 6.69902 4.6445 6.67581C4.75712 6.6526 4.87328 6.65248 4.98595 6.67546C5.09863 6.69844 5.20546 6.74404 5.3 6.80951L12 10.9995L18.7 6.80951C18.7945 6.74404 18.9014 6.69844 19.014 6.67546C19.1267 6.65248 19.2429 6.6526 19.3555 6.67581C19.4681 6.69902 19.5749 6.74485 19.6693 6.81051C19.7637 6.87617 19.8438 6.9603 19.9047 7.05781C19.9657 7.15533 20.0062 7.26419 20.0238 7.37782C20.0415 7.49145 20.0359 7.60748 20.0074 7.71888C19.9789 7.83029 19.9281 7.93476 19.8581 8.02597C19.7881 8.11717 19.7003 8.19322 19.6 8.24951Z" fill="#FFF3E0"/>
</svg>
