<svg width="101" height="274" viewBox="0 0 101 274" fill="none" xmlns="http://www.w3.org/2000/svg">
<path fill-rule="evenodd" clip-rule="evenodd" d="M120.396 268.09C125.078 265.531 129.391 261.543 133.09 256.353C127.66 256.14 122.251 255.175 116.928 253.471C105.142 249.052 94.2651 239.981 85.3243 227.115C67.8538 201.273 59.871 172.858 52.6079 139.501C46.6822 109.7 42.0692 79.2909 38.8016 48.491C37.1658 38.1957 36.119 27.9004 34.4831 17.6051C33.9597 15.0312 33.1745 12.1485 32.7164 9.67762C32.2584 7.20675 32.1275 8.33923 33.4362 9.67762C34.7449 11.016 32.3893 8.54508 29.2485 7.20669C-2.87895 29.3416 -10.0111 102.85 14.1336 174.197C38.2782 245.543 86.1095 289.401 120.265 269.016L120.396 268.09ZM135.249 253.882C156.188 222.996 158.085 160.298 137.605 99.4527C118.564 42.7256 85.2588 4.32405 55.3561 -0.308838C56.2067 3.08861 56.6647 6.38316 56.9919 7.61859C58.3006 19.3552 59.0858 31.0918 59.871 42.7255C60.9983 73.2517 63.2926 103.644 66.7414 133.736C71.3217 165.446 76.5564 193.449 90.6898 220.217C98.0775 233.112 107.486 242.732 117.975 248.117C123.595 250.891 129.385 252.72 135.249 253.573V253.882Z" fill="#AF7F58" fill-opacity="0.15"/>
</svg>
