<svg width="18" height="19" viewBox="0 0 18 19" fill="none" xmlns="http://www.w3.org/2000/svg">
<path d="M9 0.5C7.20979 0.5 5.4929 1.21116 4.22703 2.47703C2.96116 3.7429 2.25 5.45979 2.25 7.25V10.8515L0.804005 14.4725C0.758715 14.5862 0.741947 14.7093 0.755163 14.831C0.768379 14.9527 0.811179 15.0693 0.879826 15.1706C0.948473 15.272 1.04088 15.355 1.14898 15.4124C1.25709 15.4698 1.3776 15.4999 1.5 15.5H6C6 17.162 7.338 18.5 9 18.5C10.662 18.5 12 17.162 12 15.5H16.5C16.6224 15.4999 16.7429 15.4698 16.851 15.4124C16.9591 15.355 17.0515 15.272 17.1202 15.1706C17.1888 15.0693 17.2316 14.9527 17.2448 14.831C17.2581 14.7093 17.2413 14.5862 17.196 14.4725L15.75 10.85V7.25C15.75 5.45979 15.0388 3.7429 13.773 2.47703C12.5071 1.21116 10.7902 0.5 9 0.5ZM10.5 15.5C10.5 16.334 9.834 17 9 17C8.166 17 7.5 16.334 7.5 15.5H10.5ZM3.75 7.25C3.75 5.85761 4.30313 4.52226 5.28769 3.53769C6.27226 2.55312 7.60762 2 9 2C10.3924 2 11.7277 2.55312 12.7123 3.53769C13.6969 4.52226 14.25 5.85761 14.25 7.25V10.997C14.2502 11.0921 14.2686 11.1863 14.304 11.2745L15.393 14H2.607L3.696 11.2745C3.73143 11.1863 3.74976 11.0921 3.75 10.997V7.25Z" fill="#66371D"/>
</svg>
