<svg width="24" height="24" viewBox="0 0 24 24" fill="none" xmlns="http://www.w3.org/2000/svg">
<path d="M19.6594 12.3656L20.8031 6.10313C20.8169 6.02229 20.8132 5.93944 20.7922 5.86018C20.7711 5.78092 20.7333 5.70711 20.6813 5.64375C20.6298 5.57879 20.5642 5.52644 20.4895 5.49069C20.4148 5.45495 20.3328 5.43675 20.25 5.4375H4.96875L4.48125 2.76563C4.42829 2.4635 4.27045 2.18974 4.03551 1.99253C3.80058 1.79532 3.50361 1.68731 3.19687 1.6875H1.5C1.35082 1.6875 1.20774 1.74676 1.10225 1.85225C0.996763 1.95774 0.9375 2.10082 0.9375 2.25C0.9375 2.39918 0.996763 2.54226 1.10225 2.64775C1.20774 2.75324 1.35082 2.8125 1.5 2.8125H3.19687C3.23913 2.81376 3.27971 2.82927 3.31205 2.8565C3.34438 2.88372 3.36656 2.92108 3.375 2.9625L5.97188 17.2312C5.65075 17.4897 5.40039 17.8253 5.24422 18.2068C5.08806 18.5882 5.03117 19.003 5.0789 19.4125C5.12662 19.8219 5.27739 20.2125 5.51711 20.5478C5.75683 20.8832 6.07767 21.1522 6.44962 21.3298C6.82158 21.5074 7.2325 21.5878 7.64397 21.5635C8.05545 21.5392 8.45402 21.4109 8.80244 21.1906C9.15085 20.9704 9.43773 20.6654 9.63623 20.3041C9.83473 19.9429 9.93839 19.5372 9.9375 19.125C9.93938 18.6595 9.80583 18.2035 9.55313 17.8125H15.1969C14.9442 18.2035 14.8106 18.6595 14.8125 19.125C14.8125 19.6071 14.9555 20.0784 15.2233 20.4792C15.4911 20.88 15.8718 21.1925 16.3172 21.377C16.7626 21.5614 17.2527 21.6097 17.7255 21.5157C18.1984 21.4216 18.6327 21.1895 18.9736 20.8486C19.3145 20.5077 19.5466 20.0734 19.6407 19.6005C19.7347 19.1277 19.6864 18.6376 19.502 18.1922C19.3175 17.7468 19.005 17.3661 18.6042 17.0983C18.2034 16.8305 17.7321 16.6875 17.25 16.6875H7.0125L6.53437 14.0625H17.6344C18.1171 14.0614 18.5842 13.8909 18.9542 13.5809C19.3243 13.2708 19.5738 12.8407 19.6594 12.3656ZM8.8125 19.125C8.8125 19.3846 8.73552 19.6383 8.5913 19.8542C8.44708 20.07 8.2421 20.2383 8.00227 20.3376C7.76244 20.4369 7.49854 20.4629 7.24394 20.4123C6.98934 20.3616 6.75548 20.2366 6.57192 20.0531C6.38837 19.8695 6.26336 19.6357 6.21272 19.3811C6.16208 19.1265 6.18807 18.8626 6.28741 18.6227C6.38675 18.3829 6.55497 18.1779 6.77081 18.0337C6.98665 17.8895 7.24041 17.8125 7.5 17.8125C7.8481 17.8125 8.18194 17.9508 8.42808 18.1969C8.67422 18.4431 8.8125 18.7769 8.8125 19.125ZM18.5625 19.125C18.5625 19.3846 18.4855 19.6383 18.3413 19.8542C18.1971 20.07 17.9921 20.2383 17.7523 20.3376C17.5124 20.4369 17.2485 20.4629 16.9939 20.4123C16.7393 20.3616 16.5055 20.2366 16.3219 20.0531C16.1384 19.8695 16.0134 19.6357 15.9627 19.3811C15.9121 19.1265 15.9381 18.8626 16.0374 18.6227C16.1367 18.3829 16.305 18.1779 16.5208 18.0337C16.7367 17.8895 16.9904 17.8125 17.25 17.8125C17.5981 17.8125 17.9319 17.9508 18.1781 18.1969C18.4242 18.4431 18.5625 18.7769 18.5625 19.125ZM5.175 6.5625H19.575L18.5531 12.1687C18.5137 12.384 18.4003 12.5786 18.2326 12.719C18.0648 12.8594 17.8532 12.9367 17.6344 12.9375H6.3375L5.175 6.5625Z" fill="#F8E4BE"/>
</svg>
