<svg width="25" height="25" viewBox="0 0 25 25" fill="none" xmlns="http://www.w3.org/2000/svg">
<path d="M17.5 15.5C16.8 15.5 16.2083 15.2583 15.725 14.775C15.2417 14.2917 15 13.7 15 13C15 12.3 15.2417 11.7083 15.725 11.225C16.2083 10.7417 16.8 10.5 17.5 10.5C18.2 10.5 18.7917 10.7417 19.275 11.225C19.7583 11.7083 20 12.3 20 13C20 13.7 19.7583 14.2917 19.275 14.775C18.7917 15.2583 18.2 15.5 17.5 15.5ZM12.5 20.5V19.1C12.5 18.7 12.604 18.3293 12.812 17.988C13.0207 17.646 13.3167 17.4 13.7 17.25C14.3 17 14.921 16.8127 15.563 16.688C16.2043 16.5627 16.85 16.5 17.5 16.5C18.15 16.5 18.796 16.5627 19.438 16.688C20.0793 16.8127 20.7 17 21.3 17.25C21.6833 17.4 21.9793 17.646 22.188 17.988C22.396 18.3293 22.5 18.7 22.5 19.1V20.5H12.5ZM10.5 12.5C9.4 12.5 8.45833 12.1083 7.675 11.325C6.89167 10.5417 6.5 9.6 6.5 8.5C6.5 7.4 6.89167 6.45833 7.675 5.675C8.45833 4.89167 9.4 4.5 10.5 4.5C11.6 4.5 12.5417 4.89167 13.325 5.675C14.1083 6.45833 14.5 7.4 14.5 8.5C14.5 9.6 14.1083 10.5417 13.325 11.325C12.5417 12.1083 11.6 12.5 10.5 12.5ZM2.5 20.5V17.7C2.5 17.1333 2.64167 16.6123 2.925 16.137C3.20833 15.6623 3.6 15.3 4.1 15.05C5.1 14.55 6.13767 14.1667 7.213 13.9C8.28767 13.6333 9.38333 13.5 10.5 13.5C11.0833 13.5 11.6667 13.55 12.25 13.65C12.8333 13.75 13.4167 13.8667 14 14L13.15 14.85L12.3 15.7C12 15.6167 11.7 15.5623 11.4 15.537C11.1 15.5123 10.8 15.5 10.5 15.5C9.53333 15.5 8.58767 15.6167 7.663 15.85C6.73767 16.0833 5.85 16.4167 5 16.85C4.83333 16.9333 4.70833 17.05 4.625 17.2C4.54167 17.35 4.5 17.5167 4.5 17.7V18.5H10.5V20.5H2.5ZM10.5 10.5C11.05 10.5 11.521 10.304 11.913 9.912C12.3043 9.52067 12.5 9.05 12.5 8.5C12.5 7.95 12.3043 7.47933 11.913 7.088C11.521 6.696 11.05 6.5 10.5 6.5C9.95 6.5 9.47933 6.696 9.088 7.088C8.696 7.47933 8.5 7.95 8.5 8.5C8.5 9.05 8.696 9.52067 9.088 9.912C9.47933 10.304 9.95 10.5 10.5 10.5Z" fill="#A4663C"/>
</svg>
