<svg width="24" height="25" viewBox="0 0 24 25" fill="none" xmlns="http://www.w3.org/2000/svg">
<path d="M7 23.5C6.45 23.5 5.97933 23.3043 5.588 22.913C5.196 22.521 5 22.05 5 21.5V3.5C5 2.95 5.196 2.479 5.588 2.087C5.97933 1.69567 6.45 1.5 7 1.5H17C17.55 1.5 18.021 1.69567 18.413 2.087C18.8043 2.479 19 2.95 19 3.5V21.5C19 22.05 18.8043 22.521 18.413 22.913C18.021 23.3043 17.55 23.5 17 23.5H7ZM7 18.5V21.5H17V18.5H7ZM12 21C12.2833 21 12.521 20.904 12.713 20.712C12.9043 20.5207 13 20.2833 13 20C13 19.7167 12.9043 19.4793 12.713 19.288C12.521 19.096 12.2833 19 12 19C11.7167 19 11.4793 19.096 11.288 19.288C11.096 19.4793 11 19.7167 11 20C11 20.2833 11.096 20.5207 11.288 20.712C11.4793 20.904 11.7167 21 12 21ZM7 16.5H17V6.5H7V16.5ZM7 4.5H17V3.5H7V4.5Z" fill="#A4663C"/>
</svg>
