<svg width="24" height="25" viewBox="0 0 24 25" fill="none" xmlns="http://www.w3.org/2000/svg">
<path d="M11.99 2.5C6.47 2.5 2 6.98 2 12.5C2 18.02 6.47 22.5 11.99 22.5C17.52 22.5 22 18.02 22 12.5C22 6.98 17.52 2.5 11.99 2.5ZM12 20.5C7.58 20.5 4 16.92 4 12.5C4 8.08 7.58 4.5 12 4.5C16.42 4.5 20 8.08 20 12.5C20 16.92 16.42 20.5 12 20.5ZM11.78 7.5H11.72C11.32 7.5 11 7.82 11 8.22V12.94C11 13.29 11.18 13.62 11.49 13.8L15.64 16.29C15.98 16.49 16.42 16.39 16.62 16.05C16.6702 15.969 16.7036 15.8788 16.7182 15.7846C16.7328 15.6905 16.7283 15.5943 16.705 15.502C16.6817 15.4096 16.64 15.3229 16.5824 15.2469C16.5249 15.171 16.4526 15.1074 16.37 15.06L12.5 12.76V8.22C12.5 7.82 12.18 7.5 11.78 7.5Z" fill="#A4663C"/>
</svg>
