<svg width="71" height="56" viewBox="0 0 71 56" fill="none" xmlns="http://www.w3.org/2000/svg">
<path d="M27.6356 52.2558C40.9295 52.2558 51.7063 41.479 51.7063 28.185C51.7063 14.8911 40.9295 4.11426 27.6356 4.11426C14.3416 4.11426 3.56478 14.8911 3.56478 28.185C3.56478 41.479 14.3416 52.2558 27.6356 52.2558Z" stroke="#4E3D33" stroke-width="6.36176" stroke-miterlimit="10"/>
<path opacity="0.8" d="M39.9398 28.185C39.9398 30.6185 39.2182 32.9974 37.8662 35.0209C36.5142 37.0443 34.5925 38.6213 32.3442 39.5526C30.0959 40.4839 27.6219 40.7276 25.2352 40.2528C22.8484 39.7781 20.656 38.6062 18.9352 36.8854C17.2144 35.1646 16.0425 32.9722 15.5678 30.5854C15.093 28.1986 15.3367 25.7247 16.2679 23.4764C17.1992 21.228 18.7763 19.3064 20.7997 17.9544C22.8231 16.6024 25.202 15.8807 27.6356 15.8807" stroke="white" stroke-width="6.36176" stroke-miterlimit="10" stroke-linecap="round"/>
<path d="M53.2285 28.1849H66.4442" stroke="#4E3D33" stroke-width="7.1547" stroke-miterlimit="10" stroke-linecap="round"/>
</svg>
