<svg width="70" height="56" viewBox="0 0 70 56" fill="none" xmlns="http://www.w3.org/2000/svg">
<path d="M27.5294 52.2558C40.8233 52.2558 51.6002 41.479 51.6002 28.185C51.6002 14.8911 40.8233 4.11426 27.5294 4.11426C14.2355 4.11426 3.45863 14.8911 3.45863 28.185C3.45863 41.479 14.2355 52.2558 27.5294 52.2558Z" stroke="#4E3D33" stroke-width="6.36176" stroke-miterlimit="10"/>
<path opacity="0.8" d="M27.5291 15.8807C29.9627 15.8807 32.3416 16.6024 34.365 17.9544C36.3884 19.3064 37.9655 21.228 38.8968 23.4764C39.828 25.7247 40.0717 28.1986 39.5969 30.5854C39.1222 32.9722 37.9503 35.1646 36.2295 36.8854C34.5088 38.6062 32.3163 39.7781 29.9296 40.2528C27.5428 40.7276 25.0688 40.4839 22.8205 39.5526C20.5722 38.6213 18.6505 37.0443 17.2985 35.0209C15.9465 32.9974 15.2249 30.6185 15.2249 28.185C15.2249 24.9217 16.5212 21.7921 18.8287 19.4846C21.1362 17.1771 24.2658 15.8807 27.5291 15.8807Z" stroke="white" stroke-width="6.36176" stroke-miterlimit="10"/>
<path d="M53.122 28.1849H66.3286" stroke="#4E3D33" stroke-width="7.1547" stroke-miterlimit="10" stroke-linecap="round"/>
</svg>
