<svg width="60" height="36" viewBox="0 0 60 36" fill="none" xmlns="http://www.w3.org/2000/svg">
<path d="M18 18C18.6163 18.9998 19.3026 19.9546 20.0538 20.8574C23.7744 25.3221 28.6186 27.7703 33.7009 27.7703C38.7832 27.7703 43.6274 25.3147 47.348 20.8574C48.0992 19.9546 48.7855 18.9998 49.4018 18H18Z" fill="#4E3D33"/>
<path d="M58.3788 1.24267C58.0252 0.85352 57.5945 0.542106 57.1141 0.328186C56.6338 0.114265 56.1142 0.00250762 55.5884 0H11.8343C11.3084 0.00250762 10.7889 0.114265 10.3085 0.328186C9.82813 0.542106 9.39747 0.85352 9.04382 1.24267C8.23748 2.1285 7.80081 3.28938 7.82346 4.48703C5.70249 4.86057 3.77232 5.94624 2.35163 7.56479C0.930936 9.18334 0.104686 11.238 0.0092945 13.3895C-0.0860967 15.541 0.555068 17.6607 1.82694 19.3986C3.09882 21.1366 4.92535 22.3888 7.00495 22.9486C7.99124 23.2371 9.01332 23.3849 10.0409 23.3876C11.3088 23.3765 12.5661 23.1553 13.7615 22.7328C14.4064 23.6866 15.1045 24.6033 15.8525 25.4786C18.3383 28.4199 21.4536 30.7646 24.9679 32.3393H18.5834C18.1117 32.3393 17.6594 32.5267 17.3259 32.8602C16.9923 33.1938 16.805 33.6461 16.805 34.1178C16.805 34.5895 16.9923 35.0418 17.3259 35.3753C17.6594 35.7089 18.1117 35.8962 18.5834 35.8962H48.8764C49.3481 35.8962 49.8005 35.7089 50.134 35.3753C50.4675 35.0418 50.6549 34.5895 50.6549 34.1178C50.6549 33.6461 50.4675 33.1938 50.134 32.8602C49.8005 32.5267 49.3481 32.3393 48.8764 32.3393H42.3952C45.9084 30.7663 49.0216 28.4212 51.5032 25.4786C56.1986 20.0316 59.0634 12.6798 59.5694 4.77723C59.6199 4.13822 59.5404 3.49561 59.3358 2.88814C59.1311 2.28068 58.8056 1.72094 58.3788 1.24267ZM7.92765 19.5182C6.65548 19.1705 5.53599 18.4076 4.74703 17.3508C3.95806 16.2939 3.54486 15.0038 3.57308 13.6852C3.6013 12.3667 4.06931 11.0954 4.90276 10.0733C5.73622 9.05119 6.88731 8.3369 8.1732 8.04391C8.75595 12.0728 10.0138 15.9745 11.8938 19.5852C10.59 19.9221 9.21928 19.899 7.92765 19.5182ZM33.7039 29.7275C22.5868 29.7275 13.1662 18.6401 12.2584 4.49447H55.1493C54.6285 18.1639 44.8284 29.7275 33.7113 29.7275H33.7039Z" fill="#4E3D33"/>
</svg>
