<svg width="60" height="36" viewBox="0 0 60 36" fill="none" xmlns="http://www.w3.org/2000/svg">
<path d="M58.7864 1.24292C58.4327 0.853764 58.002 0.54235 57.5217 0.32843C57.0413 0.114509 56.5217 0.00275177 55.9959 0.000244141H12.2418C11.716 0.00275177 11.1964 0.114509 10.716 0.32843C10.2357 0.54235 9.805 0.853764 9.45136 1.24292C8.64501 2.12874 8.20834 3.28963 8.23099 4.48727C6.11002 4.86081 4.17985 5.94648 2.75916 7.56503C1.33847 9.18359 0.512217 11.2382 0.416826 13.3897C0.321435 15.5412 0.9626 17.661 2.23447 19.3989C3.50635 21.1368 5.33289 22.389 7.41248 22.9488C8.39877 23.2373 9.42085 23.3851 10.4485 23.3879C11.7163 23.3768 12.9736 23.1555 14.1691 22.733C14.8139 23.6868 15.512 24.6036 16.26 25.4788C18.7458 28.4201 21.8611 30.7649 25.3755 32.3396H18.991C18.5193 32.3396 18.0669 32.527 17.7334 32.8605C17.3999 33.194 17.2125 33.6464 17.2125 34.118C17.2125 34.5897 17.3999 35.0421 17.7334 35.3756C18.0669 35.7091 18.5193 35.8965 18.991 35.8965H49.284C49.7556 35.8965 50.208 35.7091 50.5415 35.3756C50.875 35.0421 51.0624 34.5897 51.0624 34.118C51.0624 33.6464 50.875 33.194 50.5415 32.8605C50.208 32.527 49.7556 32.3396 49.284 32.3396H42.8027C46.3159 30.7666 49.4292 28.4215 51.9107 25.4788C56.6061 20.0319 59.4709 12.68 59.9769 4.77748C60.0274 4.13846 59.9479 3.49586 59.7433 2.88839C59.5387 2.28092 59.2131 1.72118 58.7864 1.24292ZM8.33518 19.5184C7.06301 19.1707 5.94353 18.4078 5.15456 17.351C4.36559 16.2942 3.95239 15.004 3.98061 13.6855C4.00883 12.3669 4.47684 11.0956 5.31029 10.0735C6.14375 9.05143 7.29484 8.33715 8.58073 8.04415C9.16348 12.073 10.4213 15.9748 12.3013 19.5854C10.9976 19.9224 9.62682 19.8992 8.33518 19.5184ZM34.1114 29.7277C22.9943 29.7277 13.5738 18.6404 12.666 4.49471H55.5569C55.036 18.1642 45.236 29.7277 34.1189 29.7277H34.1114Z" fill="#4E3D33"/>
</svg>
