<svg width="60" height="36" viewBox="0 0 60 36" fill="none" xmlns="http://www.w3.org/2000/svg">
<path d="M58.3788 1.24267C58.0252 0.85352 57.5945 0.542106 57.1141 0.328186C56.6338 0.114265 56.1142 0.00250762 55.5884 0H11.8343C11.3084 0.00250762 10.7889 0.114265 10.3085 0.328186C9.82813 0.542106 9.39747 0.85352 9.04382 1.24267C8.23748 2.1285 7.80081 3.28938 7.82346 4.48703C5.70249 4.86057 3.77232 5.94624 2.35163 7.56479C0.930936 9.18334 0.104686 11.238 0.0092945 13.3895C-0.0860967 15.541 0.555068 17.6607 1.82694 19.3986C3.09882 21.1366 4.92535 22.3888 7.00495 22.9486C7.99124 23.2371 9.01332 23.3849 10.0409 23.3876C11.3088 23.3765 12.5661 23.1553 13.7615 22.7328C14.4064 23.6866 15.1045 24.6033 15.8525 25.4786C18.3383 28.4199 21.4536 30.7646 24.9679 32.3393H18.5834C18.1117 32.3393 17.6594 32.5267 17.3259 32.8602C16.9923 33.1938 16.805 33.6461 16.805 34.1178C16.805 34.5895 16.9923 35.0418 17.3259 35.3753C17.6594 35.7089 18.1117 35.8962 18.5834 35.8962H48.8764C49.3481 35.8962 49.8005 35.7089 50.134 35.3753C50.4675 35.0418 50.6549 34.5895 50.6549 34.1178C50.6549 33.6461 50.4675 33.1938 50.134 32.8602C49.8005 32.5267 49.3481 32.3393 48.8764 32.3393H42.3952C45.9084 30.7663 49.0216 28.4212 51.5032 25.4786C56.1986 20.0316 59.0634 12.6798 59.5694 4.77723C59.6199 4.13822 59.5404 3.49561 59.3358 2.88814C59.1311 2.28068 58.8056 1.72094 58.3788 1.24267ZM7.92765 19.5182C6.65548 19.1705 5.53599 18.4076 4.74703 17.3508C3.95806 16.2939 3.54486 15.0038 3.57308 13.6852C3.6013 12.3667 4.06931 11.0954 4.90276 10.0733C5.73622 9.05119 6.88731 8.3369 8.1732 8.04391C8.75595 12.0728 10.0138 15.9745 11.8938 19.5852C10.59 19.9221 9.21928 19.899 7.92765 19.5182ZM33.7039 29.7275C22.5868 29.7275 13.1662 18.6401 12.2584 4.49447H55.1493C54.6285 18.1639 44.8284 29.7275 33.7113 29.7275H33.7039Z" fill="#4E3D33"/>
<path d="M33.4615 28.2005C28.3866 28.2005 23.5424 25.7449 19.8218 21.2876C16.8934 17.6779 14.9067 13.3978 14.04 8.83107C13.9875 8.60923 13.9867 8.3783 14.0375 8.15608C14.0884 7.93386 14.1897 7.7263 14.3335 7.54942C14.4773 7.37253 14.6598 7.23105 14.8669 7.13588C15.0741 7.04072 15.3004 6.99441 15.5283 7.00054H51.4022C51.63 6.99441 51.8563 7.04072 52.0635 7.13588C52.2706 7.23105 52.4531 7.37253 52.5969 7.54942C52.7408 7.7263 52.842 7.93386 52.8929 8.15608C52.9438 8.3783 52.9429 8.60923 52.8904 8.83107C52.0204 13.3967 50.0342 17.6761 47.1086 21.2876C43.388 25.7449 38.5438 28.2005 33.4615 28.2005Z" fill="white"/>
<path d="M18 19C18.6084 20.0233 19.2859 21.0006 20.0275 21.9246C23.7005 26.4943 28.4827 29 33.5 29C38.5173 29 43.2995 26.4867 46.9725 21.9246C47.7141 21.0006 48.3916 20.0233 49 19H18Z" fill="#4E3D33"/>
<path d="M18.1083 19H48.8918C50.258 16.8202 51.3042 14.4639 52 12H15C15.6958 14.4639 16.7421 16.8202 18.1083 19Z" fill="#FFE6CF"/>
</svg>
