<svg width="19" height="14" viewBox="0 0 19 14" fill="none" xmlns="http://www.w3.org/2000/svg">
<path fill-rule="evenodd" clip-rule="evenodd" d="M7.0981 11.2351C7.05211 11.2329 7.00116 11.2306 6.9448 11.2293C6.61204 11.2189 6.1634 11.2189 5.53802 11.2189C4.91218 11.2189 4.46354 11.2189 4.13123 11.2293C4.07487 11.2311 4.02392 11.2329 3.97793 11.2351C4.03481 11.6081 4.22345 11.9484 4.50966 12.1943C4.79587 12.4402 5.1607 12.5753 5.53802 12.5753C5.91533 12.5753 6.28016 12.4402 6.56637 12.1943C6.85258 11.9484 7.04122 11.6081 7.0981 11.2351ZM5.53802 13.4734C5.86368 13.4734 6.18616 13.4092 6.48704 13.2846C6.78791 13.16 7.0613 12.9773 7.29158 12.747C7.52186 12.5167 7.70453 12.2433 7.82915 11.9425C7.95378 11.6416 8.01793 11.3191 8.01793 10.9934C8.01793 10.7932 8.01793 10.6521 7.95345 10.5529C7.8006 10.3171 7.28387 10.3171 5.53802 10.3171C3.05811 10.3171 3.05811 10.3171 3.05811 10.9934C3.05811 11.6512 3.31938 12.2819 3.78445 12.747C4.24953 13.2121 4.8803 13.4734 5.53802 13.4734ZM13.0567 3.55371H15.2322V8.96443H14.3304V4.4555H13.8006L12.5187 11.0791L11.6332 10.9078L13.0567 3.55371ZM16.336 12.5436C16.5396 12.5047 16.7335 12.426 16.9067 12.3121C17.0799 12.1982 17.2289 12.0513 17.3453 11.8798C17.4617 11.7083 17.5432 11.5156 17.5851 11.3126C17.627 11.1096 17.6285 10.9003 17.5895 10.6968L18.475 10.5272C18.5987 11.1732 18.4606 11.8419 18.0913 12.3861C17.7219 12.9303 17.1515 13.3055 16.5055 13.4292C15.8595 13.5528 15.1909 13.4148 14.6467 13.0454C14.1024 12.6761 13.7272 12.1057 13.6036 11.4597L14.4891 11.2901C14.5281 11.4937 14.6067 11.6876 14.7206 11.8608C14.8345 12.034 14.9814 12.183 15.1529 12.2994C15.3244 12.4158 15.5172 12.4973 15.7202 12.5392C15.9232 12.5811 16.1324 12.5826 16.336 12.5436Z" fill="#F8E4BE"/>
<path fill-rule="evenodd" clip-rule="evenodd" d="M17.2031 9.33062C16.906 9.12255 16.5585 8.99792 16.1969 8.9697C15.8353 8.94149 15.4727 9.01073 15.147 9.17021C14.8212 9.32968 14.5441 9.57357 14.3446 9.87648C14.1451 10.1794 14.0304 10.5302 14.0125 10.8925L17.9092 10.2054C17.7609 9.85309 17.5161 9.54988 17.2031 9.33062ZM15.5303 8.10645C16.2052 7.98748 16.9005 8.10882 17.4953 8.44937C18.09 8.78991 18.5466 9.32813 18.7857 9.97044C18.9913 10.5214 18.5792 11.003 18.1157 11.0841L14.1194 11.7893C13.6563 11.8705 13.1045 11.5594 13.1085 10.9714C13.1135 10.2861 13.3585 9.62413 13.801 9.10071C14.2434 8.57728 14.8553 8.22547 15.5303 8.10645ZM8.46882 5.35735H4.41078C4.2912 5.35735 4.17651 5.40486 4.09195 5.48942C4.0074 5.57397 3.95989 5.68866 3.95989 5.80824V6.71003H8.91971V5.80824C8.91971 5.68866 8.87221 5.57397 8.78765 5.48942C8.70309 5.40486 8.5884 5.35735 8.46882 5.35735ZM4.41078 4.45557C4.05203 4.45557 3.70797 4.59808 3.4543 4.85176C3.20062 5.10543 3.05811 5.44949 3.05811 5.80824V7.16092C3.05811 7.28051 3.10561 7.39519 3.19017 7.47975C3.27473 7.56431 3.38941 7.61182 3.509 7.61182H9.37061C9.49019 7.61182 9.60488 7.56431 9.68944 7.47975C9.77399 7.39519 9.8215 7.28051 9.8215 7.16092V5.80824C9.8215 5.44949 9.67898 5.10543 9.42531 4.85176C9.17163 4.59808 8.82757 4.45557 8.46882 4.45557H4.41078Z" fill="#F8E4BE"/>
<path fill-rule="evenodd" clip-rule="evenodd" d="M8.46862 7.61178H5.35114C3.55974 7.61178 2.12636 8.79988 1.78368 10.3171H8.41857C8.43639 10.3181 8.45402 10.313 8.46862 10.3027V7.61178ZM5.35114 6.71C2.83967 6.71 0.803436 8.63892 0.803436 11.0187C0.803436 11.1292 0.898124 11.2189 1.01536 11.2189H8.41857C8.94431 11.2189 9.3704 10.8154 9.3704 10.3171V7.07071C9.3704 6.87142 9.19996 6.71 8.98985 6.71H5.35114ZM14.7811 1.75017H13.8793C13.6402 1.75017 13.4108 1.84518 13.2417 2.0143C13.0726 2.18342 12.9775 2.41279 12.9775 2.65196C12.9775 2.89113 13.0726 3.1205 13.2417 3.28962C13.4108 3.45874 13.6402 3.55375 13.8793 3.55375H14.7811V1.75017ZM13.8793 0.848389C13.401 0.848389 12.9422 1.03841 12.604 1.37664C12.2658 1.71488 12.0758 2.17362 12.0758 2.65196C12.0758 3.1303 12.2658 3.58904 12.604 3.92728C12.9422 4.26551 13.401 4.45553 13.8793 4.45553H15.4056C15.5589 4.45553 15.6829 4.33109 15.6829 4.17823V1.12569C15.6829 1.05214 15.6537 0.981611 15.6017 0.929608C15.5497 0.877604 15.4791 0.848389 15.4056 0.848389H13.8793Z" fill="#F8E4BE"/>
<path d="M10.4284 1.29932L12.6491 1.68979L12.4926 2.57805L10.2724 2.18758L10.4284 1.29932Z" fill="#F8E4BE"/>
<path fill-rule="evenodd" clip-rule="evenodd" d="M13.4287 11.219H8.01794V10.3172H13.4287V11.219ZM12.5269 8.96453H8.46884V8.06274H12.5269V8.96453Z" fill="#F8E4BE"/>
</svg>
