<svg width="42" height="35" viewBox="0 0 42 35" fill="none" xmlns="http://www.w3.org/2000/svg">
<g clip-path="url(#clip0_12_3573)">
<path d="M24.3687 14.9381L24.3687 5.95669e-05L41.1641 6.10352e-05L41.1641 11.7957C41.1641 18.1734 40.231 22.8019 38.3804 25.6502C35.9389 29.4737 32.0821 32.353 26.8103 34.3035L22.9847 29.3035C26.1727 28.2044 28.5209 26.579 30.0294 24.4118C31.5379 22.2446 32.3776 19.0867 32.5487 14.9381L24.3687 14.9381Z" fill="#FFF3E0"/>
<path d="M1.39962 14.9383L1.39962 0.000204527L18.1794 0.000205994L18.1794 11.7959C18.1794 18.1736 17.2463 22.8021 15.3957 25.6658C12.9542 29.4739 9.09748 32.3531 3.82561 34.3191L1.18812e-05 29.3191C3.18801 28.22 5.53625 26.5946 7.04471 24.4274C8.55318 22.2603 9.39295 19.1024 9.56401 14.9538L1.38407 14.9538L1.39962 14.9383Z" fill="#FFF3E0"/>
</g>
<defs>
<clipPath id="clip0_12_3573">
<rect width="41.1641" height="34.3034" fill="white" transform="translate(41.1641 34.3035) rotate(-180)"/>
</clipPath>
</defs>
</svg>
