<svg width="127" height="32" viewBox="0 0 127 32" fill="none" xmlns="http://www.w3.org/2000/svg">
<g clip-path="url(#clip0_12_3553)">
<path d="M15.3629 23.8965L10.0499 27.0971C9.81522 27.2465 9.56984 27.3105 9.31379 27.2891C9.05774 27.2678 8.8337 27.1825 8.64166 27.0331C8.44963 26.8837 8.30026 26.6972 8.19358 26.4736C8.08689 26.2492 8.06555 25.9982 8.12956 25.7208L9.53783 19.6717L4.83294 15.6069C4.61957 15.4149 4.48642 15.196 4.43351 14.9502C4.37974 14.7052 4.39553 14.4654 4.48087 14.2307C4.56622 13.996 4.69425 13.8039 4.86495 13.6546C5.03565 13.5052 5.27036 13.4092 5.56908 13.3665L11.7783 12.8224L14.1787 7.12532C14.2854 6.86928 14.451 6.67724 14.6754 6.54921C14.8991 6.42119 15.1282 6.35718 15.3629 6.35718C15.5976 6.35718 15.8272 6.42119 16.0517 6.54921C16.2753 6.67724 16.4405 6.86928 16.5472 7.12532L18.9476 12.8224L25.1568 13.3665C25.4555 13.4092 25.6902 13.5052 25.8609 13.6546C26.0316 13.8039 26.1596 13.996 26.245 14.2307C26.3303 14.4654 26.3466 14.7052 26.2936 14.9502C26.2399 15.196 26.1063 15.4149 25.8929 15.6069L21.188 19.6717L22.5963 25.7208C22.6603 25.9982 22.639 26.2492 22.5323 26.4736C22.4256 26.6972 22.2762 26.8837 22.0842 27.0331C21.8922 27.1825 21.6681 27.2678 21.4121 27.2891C21.156 27.3105 20.9106 27.2465 20.6759 27.0971L15.3629 23.8965Z" fill="url(#paint0_linear_12_3553)"/>
<path d="M47.4544 23.8965L42.1414 27.0971C41.9067 27.2465 41.6613 27.3105 41.4053 27.2891C41.1492 27.2678 40.9252 27.1825 40.7331 27.0331C40.5411 26.8837 40.3917 26.6972 40.2851 26.4736C40.1784 26.2492 40.157 25.9982 40.221 25.7208L41.6293 19.6717L36.9244 15.6069C36.7111 15.4149 36.5779 15.196 36.525 14.9502C36.4712 14.7052 36.487 14.4654 36.5724 14.2307C36.6577 13.996 36.7857 13.8039 36.9564 13.6546C37.1271 13.5052 37.3618 13.4092 37.6606 13.3665L43.8697 12.8224L46.2702 7.12532C46.3769 6.86928 46.5425 6.67724 46.7669 6.54921C46.9905 6.42119 47.2197 6.35718 47.4544 6.35718C47.6891 6.35718 47.9187 6.42119 48.1432 6.54921C48.3668 6.67724 48.532 6.86928 48.6386 7.12532L51.0391 12.8224L57.2483 13.3665C57.547 13.4092 57.7817 13.5052 57.9524 13.6546C58.1231 13.8039 58.2511 13.996 58.3365 14.2307C58.4218 14.4654 58.438 14.7052 58.3851 14.9502C58.3314 15.196 58.1978 15.4149 57.9844 15.6069L53.2795 19.6717L54.6878 25.7208C54.7518 25.9982 54.7305 26.2492 54.6238 26.4736C54.5171 26.6972 54.3677 26.8837 54.1757 27.0331C53.9836 27.1825 53.7596 27.2678 53.5036 27.2891C53.2475 27.3105 53.0021 27.2465 52.7674 27.0971L47.4544 23.8965Z" fill="url(#paint1_linear_12_3553)"/>
<path d="M79.5457 23.8965L74.2327 27.0971C73.9979 27.2465 73.7526 27.3105 73.4965 27.2891C73.2405 27.2678 73.0164 27.1825 72.8244 27.0331C72.6324 26.8837 72.483 26.6972 72.3763 26.4736C72.2696 26.2492 72.2483 25.9982 72.3123 25.7208L73.7206 19.6717L69.0157 15.6069C68.8023 15.4149 68.6691 15.196 68.6162 14.9502C68.5625 14.7052 68.5783 14.4654 68.6636 14.2307C68.749 13.996 68.877 13.8039 69.0477 13.6546C69.2184 13.5052 69.4531 13.4092 69.7518 13.3665L75.961 12.8224L78.3614 7.12532C78.4681 6.86928 78.6337 6.67724 78.8582 6.54921C79.0818 6.42119 79.3109 6.35718 79.5457 6.35718C79.7804 6.35718 80.01 6.42119 80.2344 6.54921C80.458 6.67724 80.6232 6.86928 80.7299 7.12532L83.1303 12.8224L89.3395 13.3665C89.6382 13.4092 89.8729 13.5052 90.0436 13.6546C90.2143 13.8039 90.3424 13.996 90.4277 14.2307C90.5131 14.4654 90.5293 14.7052 90.4764 14.9502C90.4226 15.196 90.289 15.4149 90.0756 15.6069L85.3708 19.6717L86.779 25.7208C86.843 25.9982 86.8217 26.2492 86.715 26.4736C86.6083 26.6972 86.459 26.8837 86.2669 27.0331C86.0749 27.1825 85.8509 27.2678 85.5948 27.2891C85.3388 27.3105 85.0934 27.2465 84.8587 27.0971L79.5457 23.8965Z" fill="url(#paint2_linear_12_3553)"/>
<path d="M111.637 10.902V20.8879L115.67 23.3524L114.614 18.7435L118.166 15.6709L113.493 15.2549L111.637 10.902ZM111.637 23.8965L106.324 27.0971C106.089 27.2465 105.844 27.3105 105.588 27.2891C105.332 27.2678 105.108 27.1825 104.916 27.0331C104.724 26.8837 104.574 26.6972 104.468 26.4736C104.361 26.2492 104.34 25.9982 104.404 25.7208L105.812 19.6717L101.107 15.6069C100.894 15.4149 100.761 15.196 100.708 14.9502C100.654 14.7052 100.67 14.4654 100.755 14.2307C100.84 13.996 100.968 13.8039 101.139 13.6546C101.31 13.5052 101.545 13.4092 101.843 13.3665L108.052 12.8224L110.453 7.12532C110.56 6.86928 110.725 6.67724 110.95 6.54921C111.173 6.42119 111.402 6.35718 111.637 6.35718C111.872 6.35718 112.101 6.42119 112.326 6.54921C112.55 6.67724 112.715 6.86928 112.821 7.12532L115.222 12.8224L121.431 13.3665C121.73 13.4092 121.964 13.5052 122.135 13.6546C122.306 13.8039 122.434 13.996 122.519 14.2307C122.605 14.4654 122.621 14.7052 122.568 14.9502C122.514 15.196 122.381 15.4149 122.167 15.6069L117.462 19.6717L118.871 25.7208C118.935 25.9982 118.913 26.2492 118.807 26.4736C118.7 26.6972 118.55 26.8837 118.358 27.0331C118.166 27.1825 117.942 27.2678 117.686 27.2891C117.43 27.3105 117.185 27.2465 116.95 27.0971L111.637 23.8965Z" fill="url(#paint3_linear_12_3553)"/>
</g>
<defs>
<linearGradient id="paint0_linear_12_3553" x1="20.4708" y1="1.49049" x2="-0.748487" y2="9.25875" gradientUnits="userSpaceOnUse">
<stop stop-color="#E0A872"/>
<stop offset="0.444501" stop-color="#F8E4BE"/>
<stop offset="0.549712" stop-color="#FFF3E0"/>
<stop offset="1" stop-color="#E0A872"/>
</linearGradient>
<linearGradient id="paint1_linear_12_3553" x1="52.5623" y1="1.49049" x2="31.343" y2="9.25875" gradientUnits="userSpaceOnUse">
<stop stop-color="#E0A872"/>
<stop offset="0.444501" stop-color="#F8E4BE"/>
<stop offset="0.549712" stop-color="#FFF3E0"/>
<stop offset="1" stop-color="#E0A872"/>
</linearGradient>
<linearGradient id="paint2_linear_12_3553" x1="84.6535" y1="1.49049" x2="63.4342" y2="9.25875" gradientUnits="userSpaceOnUse">
<stop stop-color="#E0A872"/>
<stop offset="0.444501" stop-color="#F8E4BE"/>
<stop offset="0.549712" stop-color="#FFF3E0"/>
<stop offset="1" stop-color="#E0A872"/>
</linearGradient>
<linearGradient id="paint3_linear_12_3553" x1="116.745" y1="1.49049" x2="95.5257" y2="9.25875" gradientUnits="userSpaceOnUse">
<stop stop-color="#E0A872"/>
<stop offset="0.444501" stop-color="#F8E4BE"/>
<stop offset="0.549712" stop-color="#FFF3E0"/>
<stop offset="1" stop-color="#E0A872"/>
</linearGradient>
<clipPath id="clip0_12_3553">
<rect width="127" height="30.7258" fill="white" transform="translate(0 0.5)"/>
</clipPath>
</defs>
</svg>
