<svg width="132" height="321" viewBox="0 0 132 321" fill="none" xmlns="http://www.w3.org/2000/svg">
<path fill-rule="evenodd" clip-rule="evenodd" d="M-55.1386 313.617C-62.3761 310.629 -69.0456 305.973 -74.7641 299.914C-66.3681 299.664 -58.0069 298.538 -49.777 296.548C-31.5545 291.389 -14.7385 280.799 -0.915573 265.776C26.0948 235.606 38.4366 202.43 49.6656 163.485C58.827 128.69 65.959 93.1864 71.0108 57.2262C73.5399 45.206 75.1584 33.1859 77.6874 21.1657C78.4967 18.1606 79.7107 14.7949 80.4189 11.9101C81.127 9.02524 81.3293 10.3475 79.3061 11.9101C77.2828 13.4727 80.9247 10.5878 85.7804 9.02517C135.451 34.8686 146.478 120.693 109.149 203.993C71.82 287.292 -2.12949 338.498 -54.9362 314.698L-55.1386 313.617ZM-78.1025 297.029C-110.474 260.968 -113.408 187.765 -81.7443 116.726C-52.3061 50.4949 -0.814396 5.65957 45.4168 0.250488C44.1017 4.21715 43.3935 8.06366 42.8877 9.50608C40.8645 23.2091 39.6505 36.912 38.4366 50.4948C36.6937 86.1354 33.1466 121.619 27.8145 156.753C20.7331 193.775 12.6401 226.47 -9.21095 257.723C-20.6327 272.778 -35.1783 284.01 -51.3956 290.297C-60.0833 293.537 -69.0357 295.672 -78.1025 296.668V297.029Z" fill="#AF7F58" fill-opacity="0.15"/>
</svg>
