<svg width="89" height="137" viewBox="0 0 89 137" fill="none" xmlns="http://www.w3.org/2000/svg">
<path fill-rule="evenodd" clip-rule="evenodd" d="M28.9104 135.539C25.8389 134.964 22.8643 133.668 20.1574 131.726C23.4392 130.9 26.641 129.724 29.7258 128.212C36.4989 124.561 42.3079 118.847 46.6046 111.611C54.9386 97.1422 57.2783 82.7341 58.7438 66.1022C59.7107 51.3183 59.8261 36.4249 59.0891 21.5278C59.1731 16.4755 58.8992 11.5021 58.9833 6.44981C59.0739 5.17143 59.2963 3.71302 59.3562 2.49173C59.4162 1.27043 59.5958 1.78461 58.9188 2.58799C58.2417 3.39137 59.4549 1.91626 61.2456 0.867836C82.7296 6.96278 93.5633 40.5198 85.1958 77.2451C76.8284 113.97 51.634 140.958 29.0719 135.956L28.9104 135.539ZM18.6265 130.855C3.16954 119.155 -3.52688 89.9733 3.54186 58.6683C10.0997 29.4892 26.9477 7.0058 44.713 0.831284C44.4963 2.5401 44.5092 4.14809 44.4196 4.77186C44.6618 10.457 45.2221 16.0722 45.7734 21.639C47.7871 36.1213 49.0795 50.6967 49.6437 65.2858C49.6632 80.7855 48.9574 94.6326 42.7335 109.09C39.3833 116.132 34.5155 121.907 28.6161 125.838C25.446 127.892 22.0883 129.525 18.5992 130.71L18.6265 130.855Z" fill="#AF7F58" fill-opacity="0.15"/>
</svg>
